<?xml version="1.0" encoding="UTF-8" ?>
<svg version="1.1" width="64" height="128" xmlns="http://www.w3.org/2000/svg" shape-rendering="crispEdges">
<rect x="40" y="0" width="2" height="2" fill="#060606" />
<rect x="42" y="0" width="2" height="2" fill="#060606" />
<rect x="44" y="0" width="2" height="2" fill="#060606" />
<rect x="46" y="0" width="2" height="2" fill="#060606" />
<rect x="48" y="0" width="2" height="2" fill="#060606" />
<rect x="50" y="0" width="2" height="2" fill="#060606" />
<rect x="52" y="0" width="2" height="2" fill="#060606" />
<rect x="54" y="0" width="2" height="2" fill="#060606" />
<rect x="56" y="0" width="2" height="2" fill="#060606" />
<rect x="58" y="0" width="2" height="2" fill="#060606" />
<rect x="60" y="0" width="2" height="2" fill="#060606" />
<rect x="62" y="0" width="2" height="2" fill="#060606" />
<rect x="26" y="2" width="2" height="2" fill="#060606" />
<rect x="28" y="2" width="2" height="2" fill="#060606" />
<rect x="30" y="2" width="2" height="2" fill="#060606" />
<rect x="32" y="2" width="2" height="2" fill="#060606" />
<rect x="34" y="2" width="2" height="2" fill="#060606" />
<rect x="36" y="2" width="2" height="2" fill="#060606" />
<rect x="38" y="2" width="2" height="2" fill="#060606" />
<rect x="40" y="2" width="2" height="2" fill="#060606" />
<rect x="42" y="2" width="2" height="2" fill="#060606" />
<rect x="44" y="2" width="2" height="2" fill="#060606" />
<rect x="46" y="2" width="2" height="2" fill="#060606" />
<rect x="48" y="2" width="2" height="2" fill="#060606" />
<rect x="50" y="2" width="2" height="2" fill="#060606" />
<rect x="52" y="2" width="2" height="2" fill="#060606" />
<rect x="54" y="2" width="2" height="2" fill="#060606" />
<rect x="56" y="2" width="2" height="2" fill="#060606" />
<rect x="58" y="2" width="2" height="2" fill="#060606" />
<rect x="60" y="2" width="2" height="2" fill="#060606" />
<rect x="62" y="2" width="2" height="2" fill="#060606" />
<rect x="16" y="4" width="2" height="2" fill="#060606" />
<rect x="18" y="4" width="2" height="2" fill="#060606" />
<rect x="20" y="4" width="2" height="2" fill="#060606" />
<rect x="22" y="4" width="2" height="2" fill="#060606" />
<rect x="24" y="4" width="2" height="2" fill="#060606" />
<rect x="26" y="4" width="2" height="2" fill="#060606" />
<rect x="28" y="4" width="2" height="2" fill="#060606" />
<rect x="30" y="4" width="2" height="2" fill="#060606" />
<rect x="32" y="4" width="2" height="2" fill="#060606" />
<rect x="34" y="4" width="2" height="2" fill="#060606" />
<rect x="36" y="4" width="2" height="2" fill="#060606" />
<rect x="38" y="4" width="2" height="2" fill="#060606" />
<rect x="40" y="4" width="2" height="2" fill="#060606" />
<rect x="42" y="4" width="2" height="2" fill="#060606" />
<rect x="44" y="4" width="2" height="2" fill="#060606" />
<rect x="46" y="4" width="2" height="2" fill="#060606" />
<rect x="48" y="4" width="2" height="2" fill="#060606" />
<rect x="50" y="4" width="2" height="2" fill="#060606" />
<rect x="52" y="4" width="2" height="2" fill="#060606" />
<rect x="54" y="4" width="2" height="2" fill="#060606" />
<rect x="56" y="4" width="2" height="2" fill="#060606" />
<rect x="58" y="4" width="2" height="2" fill="#060606" />
<rect x="60" y="4" width="2" height="2" fill="#060606" />
<rect x="10" y="6" width="2" height="2" fill="#010101" />
<rect x="12" y="6" width="2" height="2" fill="#060606" />
<rect x="14" y="6" width="2" height="2" fill="#060606" />
<rect x="16" y="6" width="2" height="2" fill="#060606" />
<rect x="18" y="6" width="2" height="2" fill="#060606" />
<rect x="20" y="6" width="2" height="2" fill="#060606" />
<rect x="22" y="6" width="2" height="2" fill="#060606" />
<rect x="24" y="6" width="2" height="2" fill="#060606" />
<rect x="26" y="6" width="2" height="2" fill="#060606" />
<rect x="28" y="6" width="2" height="2" fill="#060606" />
<rect x="30" y="6" width="2" height="2" fill="#060606" />
<rect x="32" y="6" width="2" height="2" fill="#060606" />
<rect x="34" y="6" width="2" height="2" fill="#060606" />
<rect x="36" y="6" width="2" height="2" fill="#060606" />
<rect x="38" y="6" width="2" height="2" fill="#060606" />
<rect x="40" y="6" width="2" height="2" fill="#060606" />
<rect x="42" y="6" width="2" height="2" fill="#060606" />
<rect x="44" y="6" width="2" height="2" fill="#060606" />
<rect x="46" y="6" width="2" height="2" fill="#060606" />
<rect x="48" y="6" width="2" height="2" fill="#060606" />
<rect x="50" y="6" width="2" height="2" fill="#060606" />
<rect x="52" y="6" width="2" height="2" fill="#060606" />
<rect x="54" y="6" width="2" height="2" fill="#060606" />
<rect x="56" y="6" width="2" height="2" fill="#060606" />
<rect x="58" y="6" width="2" height="2" fill="#060606" />
<rect x="60" y="6" width="2" height="2" fill="#060606" />
<rect x="8" y="8" width="2" height="2" fill="#060606" />
<rect x="10" y="8" width="2" height="2" fill="#060606" />
<rect x="12" y="8" width="2" height="2" fill="#060606" />
<rect x="14" y="8" width="2" height="2" fill="#060606" />
<rect x="16" y="8" width="2" height="2" fill="#060606" />
<rect x="18" y="8" width="2" height="2" fill="#060606" />
<rect x="20" y="8" width="2" height="2" fill="#060606" />
<rect x="22" y="8" width="2" height="2" fill="#060606" />
<rect x="24" y="8" width="2" height="2" fill="#060606" />
<rect x="26" y="8" width="2" height="2" fill="#060606" />
<rect x="28" y="8" width="2" height="2" fill="#060606" />
<rect x="30" y="8" width="2" height="2" fill="#060606" />
<rect x="32" y="8" width="2" height="2" fill="#060606" />
<rect x="34" y="8" width="2" height="2" fill="#060606" />
<rect x="36" y="8" width="2" height="2" fill="#060606" />
<rect x="38" y="8" width="2" height="2" fill="#060606" />
<rect x="40" y="8" width="2" height="2" fill="#060606" />
<rect x="42" y="8" width="2" height="2" fill="#060606" />
<rect x="44" y="8" width="2" height="2" fill="#060606" />
<rect x="46" y="8" width="2" height="2" fill="#060606" />
<rect x="48" y="8" width="2" height="2" fill="#060606" />
<rect x="50" y="8" width="2" height="2" fill="#060606" />
<rect x="52" y="8" width="2" height="2" fill="#060606" />
<rect x="54" y="8" width="2" height="2" fill="#060606" />
<rect x="56" y="8" width="2" height="2" fill="#060606" />
<rect x="58" y="8" width="2" height="2" fill="#060606" />
<rect x="60" y="8" width="2" height="2" fill="#060606" />
<rect x="8" y="10" width="2" height="2" fill="#010101" />
<rect x="10" y="10" width="2" height="2" fill="#060606" />
<rect x="12" y="10" width="2" height="2" fill="#060606" />
<rect x="14" y="10" width="2" height="2" fill="#060606" />
<rect x="16" y="10" width="2" height="2" fill="#060606" />
<rect x="18" y="10" width="2" height="2" fill="#060606" />
<rect x="20" y="10" width="2" height="2" fill="#060606" />
<rect x="22" y="10" width="2" height="2" fill="#060606" />
<rect x="24" y="10" width="2" height="2" fill="#060606" />
<rect x="26" y="10" width="2" height="2" fill="#060606" />
<rect x="28" y="10" width="2" height="2" fill="#060606" />
<rect x="30" y="10" width="2" height="2" fill="#060606" />
<rect x="32" y="10" width="2" height="2" fill="#060606" />
<rect x="34" y="10" width="2" height="2" fill="#060606" />
<rect x="36" y="10" width="2" height="2" fill="#060606" />
<rect x="38" y="10" width="2" height="2" fill="#060606" />
<rect x="40" y="10" width="2" height="2" fill="#060606" />
<rect x="42" y="10" width="2" height="2" fill="#060606" />
<rect x="44" y="10" width="2" height="2" fill="#060606" />
<rect x="46" y="10" width="2" height="2" fill="#060606" />
<rect x="48" y="10" width="2" height="2" fill="#060606" />
<rect x="50" y="10" width="2" height="2" fill="#060606" />
<rect x="52" y="10" width="2" height="2" fill="#060606" />
<rect x="54" y="10" width="2" height="2" fill="#060606" />
<rect x="56" y="10" width="2" height="2" fill="#060606" />
<rect x="58" y="10" width="2" height="2" fill="#060606" />
<rect x="60" y="10" width="2" height="2" fill="#060606" />
<rect x="6" y="12" width="2" height="2" fill="#060606" />
<rect x="8" y="12" width="2" height="2" fill="#060606" />
<rect x="10" y="12" width="2" height="2" fill="#010101" />
<rect x="12" y="12" width="2" height="2" fill="#010101" />
<rect x="14" y="12" width="2" height="2" fill="#060606" />
<rect x="16" y="12" width="2" height="2" fill="#060606" />
<rect x="18" y="12" width="2" height="2" fill="#060606" />
<rect x="20" y="12" width="2" height="2" fill="#060606" />
<rect x="22" y="12" width="2" height="2" fill="#060606" />
<rect x="24" y="12" width="2" height="2" fill="#060606" />
<rect x="26" y="12" width="2" height="2" fill="#060606" />
<rect x="28" y="12" width="2" height="2" fill="#060606" />
<rect x="30" y="12" width="2" height="2" fill="#060606" />
<rect x="32" y="12" width="2" height="2" fill="#060606" />
<rect x="34" y="12" width="2" height="2" fill="#060606" />
<rect x="36" y="12" width="2" height="2" fill="#060606" />
<rect x="38" y="12" width="2" height="2" fill="#060606" />
<rect x="40" y="12" width="2" height="2" fill="#060606" />
<rect x="42" y="12" width="2" height="2" fill="#060606" />
<rect x="44" y="12" width="2" height="2" fill="#060606" />
<rect x="46" y="12" width="2" height="2" fill="#060606" />
<rect x="48" y="12" width="2" height="2" fill="#060606" />
<rect x="50" y="12" width="2" height="2" fill="#060606" />
<rect x="52" y="12" width="2" height="2" fill="#060606" />
<rect x="54" y="12" width="2" height="2" fill="#060606" />
<rect x="56" y="12" width="2" height="2" fill="#060606" />
<rect x="58" y="12" width="2" height="2" fill="#060606" />
<rect x="60" y="12" width="2" height="2" fill="#060606" />
<rect x="6" y="14" width="2" height="2" fill="#060606" />
<rect x="8" y="14" width="2" height="2" fill="#060606" />
<rect x="10" y="14" width="2" height="2" fill="#010101" />
<rect x="12" y="14" width="2" height="2" fill="#010101" />
<rect x="14" y="14" width="2" height="2" fill="#010101" />
<rect x="16" y="14" width="2" height="2" fill="#060606" />
<rect x="18" y="14" width="2" height="2" fill="#060606" />
<rect x="20" y="14" width="2" height="2" fill="#060606" />
<rect x="22" y="14" width="2" height="2" fill="#060606" />
<rect x="24" y="14" width="2" height="2" fill="#060606" />
<rect x="26" y="14" width="2" height="2" fill="#060606" />
<rect x="28" y="14" width="2" height="2" fill="#060606" />
<rect x="30" y="14" width="2" height="2" fill="#060606" />
<rect x="32" y="14" width="2" height="2" fill="#060606" />
<rect x="34" y="14" width="2" height="2" fill="#060606" />
<rect x="36" y="14" width="2" height="2" fill="#010101" />
<rect x="38" y="14" width="2" height="2" fill="#060606" />
<rect x="40" y="14" width="2" height="2" fill="#060606" />
<rect x="42" y="14" width="2" height="2" fill="#010101" />
<rect x="44" y="14" width="2" height="2" fill="#060606" />
<rect x="46" y="14" width="2" height="2" fill="#060606" />
<rect x="48" y="14" width="2" height="2" fill="#060606" />
<rect x="50" y="14" width="2" height="2" fill="#060606" />
<rect x="52" y="14" width="2" height="2" fill="#060606" />
<rect x="54" y="14" width="2" height="2" fill="#060606" />
<rect x="56" y="14" width="2" height="2" fill="#060606" />
<rect x="58" y="14" width="2" height="2" fill="#060606" />
<rect x="60" y="14" width="2" height="2" fill="#060606" />
<rect x="6" y="16" width="2" height="2" fill="#060606" />
<rect x="8" y="16" width="2" height="2" fill="#060606" />
<rect x="10" y="16" width="2" height="2" fill="#060606" />
<rect x="12" y="16" width="2" height="2" fill="#060606" />
<rect x="14" y="16" width="2" height="2" fill="#060606" />
<rect x="16" y="16" width="2" height="2" fill="#010101" />
<rect x="18" y="16" width="2" height="2" fill="#060606" />
<rect x="20" y="16" width="2" height="2" fill="#010101" />
<rect x="22" y="16" width="2" height="2" fill="#010101" />
<rect x="24" y="16" width="2" height="2" fill="#010101" />
<rect x="26" y="16" width="2" height="2" fill="#010101" />
<rect x="28" y="16" width="2" height="2" fill="#060606" />
<rect x="30" y="16" width="2" height="2" fill="#010101" />
<rect x="32" y="16" width="2" height="2" fill="#060606" />
<rect x="34" y="16" width="2" height="2" fill="#060606" />
<rect x="36" y="16" width="2" height="2" fill="#010101" />
<rect x="38" y="16" width="2" height="2" fill="#060606" />
<rect x="40" y="16" width="2" height="2" fill="#060606" />
<rect x="42" y="16" width="2" height="2" fill="#060606" />
<rect x="44" y="16" width="2" height="2" fill="#060606" />
<rect x="46" y="16" width="2" height="2" fill="#060606" />
<rect x="48" y="16" width="2" height="2" fill="#060606" />
<rect x="50" y="16" width="2" height="2" fill="#060606" />
<rect x="52" y="16" width="2" height="2" fill="#060606" />
<rect x="54" y="16" width="2" height="2" fill="#060606" />
<rect x="6" y="18" width="2" height="2" fill="#060606" />
<rect x="8" y="18" width="2" height="2" fill="#060606" />
<rect x="10" y="18" width="2" height="2" fill="#010101" />
<rect x="12" y="18" width="2" height="2" fill="#010101" />
<rect x="14" y="18" width="2" height="2" fill="#010101" />
<rect x="16" y="18" width="2" height="2" fill="#010101" />
<rect x="18" y="18" width="2" height="2" fill="#060606" />
<rect x="20" y="18" width="2" height="2" fill="#010101" />
<rect x="22" y="18" width="2" height="2" fill="#010101" />
<rect x="24" y="18" width="2" height="2" fill="#060606" />
<rect x="26" y="18" width="2" height="2" fill="#060606" />
<rect x="28" y="18" width="2" height="2" fill="#060606" />
<rect x="30" y="18" width="2" height="2" fill="#060606" />
<rect x="32" y="18" width="2" height="2" fill="#060606" />
<rect x="34" y="18" width="2" height="2" fill="#060606" />
<rect x="36" y="18" width="2" height="2" fill="#060606" />
<rect x="38" y="18" width="2" height="2" fill="#060606" />
<rect x="40" y="18" width="2" height="2" fill="#060606" />
<rect x="42" y="18" width="2" height="2" fill="#060606" />
<rect x="44" y="18" width="2" height="2" fill="#060606" />
<rect x="10" y="20" width="2" height="2" fill="#010101" />
<rect x="12" y="20" width="2" height="2" fill="#010101" />
<rect x="14" y="20" width="2" height="2" fill="#010101" />
<rect x="16" y="20" width="2" height="2" fill="#010101" />
<rect x="18" y="20" width="2" height="2" fill="#010101" />
<rect x="20" y="20" width="2" height="2" fill="#010101" />
<rect x="22" y="20" width="2" height="2" fill="#060606" />
<rect x="24" y="20" width="2" height="2" fill="#060606" />
<rect x="26" y="20" width="2" height="2" fill="#060606" />
<rect x="28" y="20" width="2" height="2" fill="#060606" />
<rect x="30" y="20" width="2" height="2" fill="#060606" />
<rect x="32" y="20" width="2" height="2" fill="#060606" />
<rect x="10" y="22" width="2" height="2" fill="#060606" />
<rect x="12" y="22" width="2" height="2" fill="#010101" />
<rect x="14" y="22" width="2" height="2" fill="#060606" />
<rect x="16" y="22" width="2" height="2" fill="#060606" />
<rect x="18" y="22" width="2" height="2" fill="#060606" />
<rect x="20" y="22" width="2" height="2" fill="#060606" />
<rect x="22" y="22" width="2" height="2" fill="#060606" />
<rect x="12" y="104" width="2" height="2" fill="#060606" />
<rect x="14" y="104" width="2" height="2" fill="#060606" />
<rect x="16" y="104" width="2" height="2" fill="#060606" />
<rect x="18" y="104" width="2" height="2" fill="#060606" />
<rect x="10" y="106" width="2" height="2" fill="#060606" />
<rect x="12" y="106" width="2" height="2" fill="#060606" />
<rect x="14" y="106" width="2" height="2" fill="#060606" />
<rect x="16" y="106" width="2" height="2" fill="#060606" />
<rect x="18" y="106" width="2" height="2" fill="#060606" />
<rect x="20" y="106" width="2" height="2" fill="#060606" />
<rect x="22" y="106" width="2" height="2" fill="#060606" />
<rect x="24" y="106" width="2" height="2" fill="#060606" />
<rect x="26" y="106" width="2" height="2" fill="#060606" />
<rect x="6" y="108" width="2" height="2" fill="#0B0B0B" />
<rect x="8" y="108" width="2" height="2" fill="#0B0B0B" />
<rect x="10" y="108" width="2" height="2" fill="#060606" />
<rect x="12" y="108" width="2" height="2" fill="#060606" />
<rect x="14" y="108" width="2" height="2" fill="#060606" />
<rect x="16" y="108" width="2" height="2" fill="#060606" />
<rect x="18" y="108" width="2" height="2" fill="#060606" />
<rect x="20" y="108" width="2" height="2" fill="#060606" />
<rect x="22" y="108" width="2" height="2" fill="#060606" />
<rect x="24" y="108" width="2" height="2" fill="#060606" />
<rect x="26" y="108" width="2" height="2" fill="#060606" />
<rect x="28" y="108" width="2" height="2" fill="#060606" />
<rect x="30" y="108" width="2" height="2" fill="#060606" />
<rect x="32" y="108" width="2" height="2" fill="#060606" />
<rect x="34" y="108" width="2" height="2" fill="#060606" />
<rect x="36" y="108" width="2" height="2" fill="#060606" />
<rect x="38" y="108" width="2" height="2" fill="#060606" />
<rect x="6" y="110" width="2" height="2" fill="#0B0B0B" />
<rect x="8" y="110" width="2" height="2" fill="#0B0B0B" />
<rect x="10" y="110" width="2" height="2" fill="#060606" />
<rect x="12" y="110" width="2" height="2" fill="#060606" />
<rect x="14" y="110" width="2" height="2" fill="#060606" />
<rect x="16" y="110" width="2" height="2" fill="#060606" />
<rect x="18" y="110" width="2" height="2" fill="#060606" />
<rect x="20" y="110" width="2" height="2" fill="#060606" />
<rect x="22" y="110" width="2" height="2" fill="#060606" />
<rect x="24" y="110" width="2" height="2" fill="#060606" />
<rect x="26" y="110" width="2" height="2" fill="#060606" />
<rect x="28" y="110" width="2" height="2" fill="#060606" />
<rect x="30" y="110" width="2" height="2" fill="#060606" />
<rect x="32" y="110" width="2" height="2" fill="#060606" />
<rect x="34" y="110" width="2" height="2" fill="#060606" />
<rect x="36" y="110" width="2" height="2" fill="#060606" />
<rect x="38" y="110" width="2" height="2" fill="#060606" />
<rect x="40" y="110" width="2" height="2" fill="#060606" />
<rect x="42" y="110" width="2" height="2" fill="#060606" />
<rect x="44" y="110" width="2" height="2" fill="#060606" />
<rect x="46" y="110" width="2" height="2" fill="#060606" />
<rect x="48" y="110" width="2" height="2" fill="#060606" />
<rect x="50" y="110" width="2" height="2" fill="#060606" />
<rect x="52" y="110" width="2" height="2" fill="#060606" />
<rect x="6" y="112" width="2" height="2" fill="#0B0B0B" />
<rect x="8" y="112" width="2" height="2" fill="#060606" />
<rect x="10" y="112" width="2" height="2" fill="#060606" />
<rect x="12" y="112" width="2" height="2" fill="#060606" />
<rect x="14" y="112" width="2" height="2" fill="#060606" />
<rect x="16" y="112" width="2" height="2" fill="#060606" />
<rect x="18" y="112" width="2" height="2" fill="#060606" />
<rect x="20" y="112" width="2" height="2" fill="#060606" />
<rect x="22" y="112" width="2" height="2" fill="#060606" />
<rect x="24" y="112" width="2" height="2" fill="#060606" />
<rect x="26" y="112" width="2" height="2" fill="#060606" />
<rect x="28" y="112" width="2" height="2" fill="#060606" />
<rect x="30" y="112" width="2" height="2" fill="#060606" />
<rect x="32" y="112" width="2" height="2" fill="#060606" />
<rect x="34" y="112" width="2" height="2" fill="#060606" />
<rect x="36" y="112" width="2" height="2" fill="#060606" />
<rect x="38" y="112" width="2" height="2" fill="#060606" />
<rect x="40" y="112" width="2" height="2" fill="#060606" />
<rect x="42" y="112" width="2" height="2" fill="#060606" />
<rect x="44" y="112" width="2" height="2" fill="#060606" />
<rect x="46" y="112" width="2" height="2" fill="#060606" />
<rect x="48" y="112" width="2" height="2" fill="#060606" />
<rect x="50" y="112" width="2" height="2" fill="#060606" />
<rect x="52" y="112" width="2" height="2" fill="#060606" />
<rect x="54" y="112" width="2" height="2" fill="#060606" />
<rect x="56" y="112" width="2" height="2" fill="#060606" />
<rect x="58" y="112" width="2" height="2" fill="#060606" />
<rect x="6" y="114" width="2" height="2" fill="#0B0B0B" />
<rect x="8" y="114" width="2" height="2" fill="#0B0B0B" />
<rect x="10" y="114" width="2" height="2" fill="#060606" />
<rect x="12" y="114" width="2" height="2" fill="#060606" />
<rect x="14" y="114" width="2" height="2" fill="#060606" />
<rect x="16" y="114" width="2" height="2" fill="#060606" />
<rect x="18" y="114" width="2" height="2" fill="#060606" />
<rect x="20" y="114" width="2" height="2" fill="#060606" />
<rect x="22" y="114" width="2" height="2" fill="#060606" />
<rect x="24" y="114" width="2" height="2" fill="#060606" />
<rect x="26" y="114" width="2" height="2" fill="#060606" />
<rect x="28" y="114" width="2" height="2" fill="#060606" />
<rect x="30" y="114" width="2" height="2" fill="#060606" />
<rect x="32" y="114" width="2" height="2" fill="#060606" />
<rect x="34" y="114" width="2" height="2" fill="#060606" />
<rect x="36" y="114" width="2" height="2" fill="#060606" />
<rect x="38" y="114" width="2" height="2" fill="#060606" />
<rect x="40" y="114" width="2" height="2" fill="#060606" />
<rect x="42" y="114" width="2" height="2" fill="#060606" />
<rect x="44" y="114" width="2" height="2" fill="#060606" />
<rect x="46" y="114" width="2" height="2" fill="#060606" />
<rect x="48" y="114" width="2" height="2" fill="#060606" />
<rect x="50" y="114" width="2" height="2" fill="#060606" />
<rect x="52" y="114" width="2" height="2" fill="#060606" />
<rect x="54" y="114" width="2" height="2" fill="#060606" />
<rect x="56" y="114" width="2" height="2" fill="#060606" />
<rect x="58" y="114" width="2" height="2" fill="#060606" />
<rect x="60" y="114" width="2" height="2" fill="#060606" />
<rect x="62" y="114" width="2" height="2" fill="#060606" />
<rect x="6" y="116" width="2" height="2" fill="#0B0B0B" />
<rect x="8" y="116" width="2" height="2" fill="#0B0B0B" />
<rect x="10" y="116" width="2" height="2" fill="#060606" />
<rect x="12" y="116" width="2" height="2" fill="#060606" />
<rect x="14" y="116" width="2" height="2" fill="#060606" />
<rect x="16" y="116" width="2" height="2" fill="#060606" />
<rect x="18" y="116" width="2" height="2" fill="#060606" />
<rect x="20" y="116" width="2" height="2" fill="#060606" />
<rect x="22" y="116" width="2" height="2" fill="#060606" />
<rect x="24" y="116" width="2" height="2" fill="#060606" />
<rect x="26" y="116" width="2" height="2" fill="#060606" />
<rect x="28" y="116" width="2" height="2" fill="#060606" />
<rect x="30" y="116" width="2" height="2" fill="#060606" />
<rect x="32" y="116" width="2" height="2" fill="#060606" />
<rect x="34" y="116" width="2" height="2" fill="#060606" />
<rect x="36" y="116" width="2" height="2" fill="#060606" />
<rect x="38" y="116" width="2" height="2" fill="#060606" />
<rect x="40" y="116" width="2" height="2" fill="#060606" />
<rect x="42" y="116" width="2" height="2" fill="#060606" />
<rect x="44" y="116" width="2" height="2" fill="#060606" />
<rect x="46" y="116" width="2" height="2" fill="#060606" />
<rect x="48" y="116" width="2" height="2" fill="#060606" />
<rect x="50" y="116" width="2" height="2" fill="#060606" />
<rect x="52" y="116" width="2" height="2" fill="#060606" />
<rect x="54" y="116" width="2" height="2" fill="#060606" />
<rect x="56" y="116" width="2" height="2" fill="#060606" />
<rect x="58" y="116" width="2" height="2" fill="#060606" />
<rect x="60" y="116" width="2" height="2" fill="#060606" />
<rect x="62" y="116" width="2" height="2" fill="#060606" />
<rect x="6" y="118" width="2" height="2" fill="#0B0B0B" />
<rect x="8" y="118" width="2" height="2" fill="#0B0B0B" />
<rect x="10" y="118" width="2" height="2" fill="#0B0B0B" />
<rect x="12" y="118" width="2" height="2" fill="#060606" />
<rect x="14" y="118" width="2" height="2" fill="#060606" />
<rect x="16" y="118" width="2" height="2" fill="#0B0B0B" />
<rect x="18" y="118" width="2" height="2" fill="#060606" />
<rect x="20" y="118" width="2" height="2" fill="#0B0B0B" />
<rect x="22" y="118" width="2" height="2" fill="#060606" />
<rect x="24" y="118" width="2" height="2" fill="#060606" />
<rect x="26" y="118" width="2" height="2" fill="#060606" />
<rect x="28" y="118" width="2" height="2" fill="#0B0B0B" />
<rect x="30" y="118" width="2" height="2" fill="#0B0B0B" />
<rect x="32" y="118" width="2" height="2" fill="#060606" />
<rect x="34" y="118" width="2" height="2" fill="#060606" />
<rect x="36" y="118" width="2" height="2" fill="#0B0B0B" />
<rect x="38" y="118" width="2" height="2" fill="#060606" />
<rect x="40" y="118" width="2" height="2" fill="#060606" />
<rect x="42" y="118" width="2" height="2" fill="#060606" />
<rect x="44" y="118" width="2" height="2" fill="#060606" />
<rect x="46" y="118" width="2" height="2" fill="#060606" />
<rect x="48" y="118" width="2" height="2" fill="#060606" />
<rect x="50" y="118" width="2" height="2" fill="#060606" />
<rect x="52" y="118" width="2" height="2" fill="#060606" />
<rect x="54" y="118" width="2" height="2" fill="#060606" />
<rect x="56" y="118" width="2" height="2" fill="#060606" />
<rect x="58" y="118" width="2" height="2" fill="#060606" />
<rect x="60" y="118" width="2" height="2" fill="#060606" />
<rect x="62" y="118" width="2" height="2" fill="#060606" />
<rect x="8" y="120" width="2" height="2" fill="#0B0B0B" />
<rect x="10" y="120" width="2" height="2" fill="#060606" />
<rect x="12" y="120" width="2" height="2" fill="#0B0B0B" />
<rect x="14" y="120" width="2" height="2" fill="#060606" />
<rect x="16" y="120" width="2" height="2" fill="#060606" />
<rect x="18" y="120" width="2" height="2" fill="#0B0B0B" />
<rect x="20" y="120" width="2" height="2" fill="#060606" />
<rect x="22" y="120" width="2" height="2" fill="#060606" />
<rect x="24" y="120" width="2" height="2" fill="#060606" />
<rect x="26" y="120" width="2" height="2" fill="#0B0B0B" />
<rect x="28" y="120" width="2" height="2" fill="#060606" />
<rect x="30" y="120" width="2" height="2" fill="#060606" />
<rect x="32" y="120" width="2" height="2" fill="#060606" />
<rect x="34" y="120" width="2" height="2" fill="#060606" />
<rect x="36" y="120" width="2" height="2" fill="#0B0B0B" />
<rect x="38" y="120" width="2" height="2" fill="#060606" />
<rect x="40" y="120" width="2" height="2" fill="#060606" />
<rect x="42" y="120" width="2" height="2" fill="#060606" />
<rect x="44" y="120" width="2" height="2" fill="#060606" />
<rect x="46" y="120" width="2" height="2" fill="#060606" />
<rect x="48" y="120" width="2" height="2" fill="#060606" />
<rect x="50" y="120" width="2" height="2" fill="#060606" />
<rect x="52" y="120" width="2" height="2" fill="#060606" />
<rect x="54" y="120" width="2" height="2" fill="#060606" />
<rect x="56" y="120" width="2" height="2" fill="#060606" />
<rect x="58" y="120" width="2" height="2" fill="#060606" />
<rect x="60" y="120" width="2" height="2" fill="#060606" />
<rect x="62" y="120" width="2" height="2" fill="#060606" />
<rect x="10" y="122" width="2" height="2" fill="#060606" />
<rect x="12" y="122" width="2" height="2" fill="#060606" />
<rect x="14" y="122" width="2" height="2" fill="#060606" />
<rect x="16" y="122" width="2" height="2" fill="#060606" />
<rect x="18" y="122" width="2" height="2" fill="#060606" />
<rect x="20" y="122" width="2" height="2" fill="#060606" />
<rect x="22" y="122" width="2" height="2" fill="#060606" />
<rect x="24" y="122" width="2" height="2" fill="#060606" />
<rect x="26" y="122" width="2" height="2" fill="#060606" />
<rect x="28" y="122" width="2" height="2" fill="#060606" />
<rect x="30" y="122" width="2" height="2" fill="#060606" />
<rect x="32" y="122" width="2" height="2" fill="#0B0B0B" />
<rect x="34" y="122" width="2" height="2" fill="#060606" />
<rect x="36" y="122" width="2" height="2" fill="#060606" />
<rect x="38" y="122" width="2" height="2" fill="#060606" />
<rect x="40" y="122" width="2" height="2" fill="#0B0B0B" />
<rect x="42" y="122" width="2" height="2" fill="#0B0B0B" />
<rect x="44" y="122" width="2" height="2" fill="#060606" />
<rect x="46" y="122" width="2" height="2" fill="#060606" />
<rect x="48" y="122" width="2" height="2" fill="#060606" />
<rect x="50" y="122" width="2" height="2" fill="#060606" />
<rect x="52" y="122" width="2" height="2" fill="#060606" />
<rect x="54" y="122" width="2" height="2" fill="#060606" />
<rect x="56" y="122" width="2" height="2" fill="#060606" />
<rect x="58" y="122" width="2" height="2" fill="#060606" />
<rect x="60" y="122" width="2" height="2" fill="#060606" />
<rect x="62" y="122" width="2" height="2" fill="#060606" />
<rect x="22" y="124" width="2" height="2" fill="#060606" />
<rect x="24" y="124" width="2" height="2" fill="#060606" />
<rect x="26" y="124" width="2" height="2" fill="#060606" />
<rect x="28" y="124" width="2" height="2" fill="#060606" />
<rect x="30" y="124" width="2" height="2" fill="#060606" />
<rect x="32" y="124" width="2" height="2" fill="#060606" />
<rect x="34" y="124" width="2" height="2" fill="#060606" />
<rect x="36" y="124" width="2" height="2" fill="#060606" />
<rect x="38" y="124" width="2" height="2" fill="#060606" />
<rect x="40" y="124" width="2" height="2" fill="#060606" />
<rect x="42" y="124" width="2" height="2" fill="#060606" />
<rect x="44" y="124" width="2" height="2" fill="#0B0B0B" />
<rect x="46" y="124" width="2" height="2" fill="#060606" />
<rect x="48" y="124" width="2" height="2" fill="#060606" />
<rect x="50" y="124" width="2" height="2" fill="#060606" />
<rect x="52" y="124" width="2" height="2" fill="#060606" />
<rect x="54" y="124" width="2" height="2" fill="#060606" />
<rect x="56" y="124" width="2" height="2" fill="#060606" />
<rect x="58" y="124" width="2" height="2" fill="#060606" />
<rect x="60" y="124" width="2" height="2" fill="#060606" />
<rect x="62" y="124" width="2" height="2" fill="#060606" />
<rect x="42" y="126" width="2" height="2" fill="#060606" />
<rect x="44" y="126" width="2" height="2" fill="#060606" />
<rect x="46" y="126" width="2" height="2" fill="#060606" />
<rect x="48" y="126" width="2" height="2" fill="#060606" />
<rect x="50" y="126" width="2" height="2" fill="#060606" />
<rect x="52" y="126" width="2" height="2" fill="#060606" />
<rect x="54" y="126" width="2" height="2" fill="#060606" />
<rect x="56" y="126" width="2" height="2" fill="#060606" />
<rect x="58" y="126" width="2" height="2" fill="#060606" />
<rect x="60" y="126" width="2" height="2" fill="#060606" />
<rect x="62" y="126" width="2" height="2" fill="#060606" />
</svg>