<?xml version="1.0" encoding="UTF-8" ?>
<svg version="1.1" width="64" height="128" xmlns="http://www.w3.org/2000/svg" shape-rendering="crispEdges">
<rect x="48" y="0" width="2" height="2" fill="#060606" />
<rect x="50" y="0" width="2" height="2" fill="#060606" />
<rect x="52" y="0" width="2" height="2" fill="#060606" />
<rect x="54" y="0" width="2" height="2" fill="#060606" />
<rect x="56" y="0" width="2" height="2" fill="#060606" />
<rect x="58" y="0" width="2" height="2" fill="#060606" />
<rect x="60" y="0" width="2" height="2" fill="#060606" />
<rect x="62" y="0" width="2" height="2" fill="#060606" />
<rect x="48" y="2" width="2" height="2" fill="#060606" />
<rect x="50" y="2" width="2" height="2" fill="#060606" />
<rect x="52" y="2" width="2" height="2" fill="#060606" />
<rect x="54" y="2" width="2" height="2" fill="#060606" />
<rect x="56" y="2" width="2" height="2" fill="#060606" />
<rect x="58" y="2" width="2" height="2" fill="#060606" />
<rect x="60" y="2" width="2" height="2" fill="#060606" />
<rect x="62" y="2" width="2" height="2" fill="#060606" />
<rect x="48" y="4" width="2" height="2" fill="#060606" />
<rect x="50" y="4" width="2" height="2" fill="#060606" />
<rect x="52" y="4" width="2" height="2" fill="#060606" />
<rect x="54" y="4" width="2" height="2" fill="#060606" />
<rect x="56" y="4" width="2" height="2" fill="#060606" />
<rect x="58" y="4" width="2" height="2" fill="#060606" />
<rect x="60" y="4" width="2" height="2" fill="#060606" />
<rect x="62" y="4" width="2" height="2" fill="#060606" />
<rect x="48" y="6" width="2" height="2" fill="#060606" />
<rect x="50" y="6" width="2" height="2" fill="#060606" />
<rect x="52" y="6" width="2" height="2" fill="#060606" />
<rect x="54" y="6" width="2" height="2" fill="#060606" />
<rect x="56" y="6" width="2" height="2" fill="#060606" />
<rect x="58" y="6" width="2" height="2" fill="#060606" />
<rect x="60" y="6" width="2" height="2" fill="#060606" />
<rect x="62" y="6" width="2" height="2" fill="#060606" />
<rect x="48" y="8" width="2" height="2" fill="#060606" />
<rect x="50" y="8" width="2" height="2" fill="#060606" />
<rect x="52" y="8" width="2" height="2" fill="#060606" />
<rect x="54" y="8" width="2" height="2" fill="#060606" />
<rect x="56" y="8" width="2" height="2" fill="#060606" />
<rect x="58" y="8" width="2" height="2" fill="#060606" />
<rect x="60" y="8" width="2" height="2" fill="#060606" />
<rect x="62" y="8" width="2" height="2" fill="#060606" />
<rect x="48" y="10" width="2" height="2" fill="#060606" />
<rect x="50" y="10" width="2" height="2" fill="#060606" />
<rect x="52" y="10" width="2" height="2" fill="#060606" />
<rect x="54" y="10" width="2" height="2" fill="#060606" />
<rect x="56" y="10" width="2" height="2" fill="#060606" />
<rect x="58" y="10" width="2" height="2" fill="#060606" />
<rect x="60" y="10" width="2" height="2" fill="#060606" />
<rect x="62" y="10" width="2" height="2" fill="#060606" />
<rect x="48" y="12" width="2" height="2" fill="#060606" />
<rect x="50" y="12" width="2" height="2" fill="#060606" />
<rect x="52" y="12" width="2" height="2" fill="#060606" />
<rect x="54" y="12" width="2" height="2" fill="#060606" />
<rect x="56" y="12" width="2" height="2" fill="#060606" />
<rect x="58" y="12" width="2" height="2" fill="#060606" />
<rect x="60" y="12" width="2" height="2" fill="#060606" />
<rect x="62" y="12" width="2" height="2" fill="#060606" />
<rect x="48" y="14" width="2" height="2" fill="#060606" />
<rect x="50" y="14" width="2" height="2" fill="#060606" />
<rect x="52" y="14" width="2" height="2" fill="#060606" />
<rect x="54" y="14" width="2" height="2" fill="#060606" />
<rect x="56" y="14" width="2" height="2" fill="#060606" />
<rect x="58" y="14" width="2" height="2" fill="#060606" />
<rect x="60" y="14" width="2" height="2" fill="#060606" />
<rect x="62" y="14" width="2" height="2" fill="#060606" />
<rect x="48" y="16" width="2" height="2" fill="#060606" />
<rect x="50" y="16" width="2" height="2" fill="#060606" />
<rect x="52" y="16" width="2" height="2" fill="#060606" />
<rect x="54" y="16" width="2" height="2" fill="#060606" />
<rect x="56" y="16" width="2" height="2" fill="#060606" />
<rect x="58" y="16" width="2" height="2" fill="#060606" />
<rect x="60" y="16" width="2" height="2" fill="#060606" />
<rect x="62" y="16" width="2" height="2" fill="#060606" />
<rect x="48" y="18" width="2" height="2" fill="#060606" />
<rect x="50" y="18" width="2" height="2" fill="#060606" />
<rect x="52" y="18" width="2" height="2" fill="#060606" />
<rect x="54" y="18" width="2" height="2" fill="#060606" />
<rect x="56" y="18" width="2" height="2" fill="#060606" />
<rect x="58" y="18" width="2" height="2" fill="#060606" />
<rect x="60" y="18" width="2" height="2" fill="#060606" />
<rect x="62" y="18" width="2" height="2" fill="#060606" />
<rect x="48" y="20" width="2" height="2" fill="#060606" />
<rect x="50" y="20" width="2" height="2" fill="#060606" />
<rect x="52" y="20" width="2" height="2" fill="#060606" />
<rect x="54" y="20" width="2" height="2" fill="#060606" />
<rect x="56" y="20" width="2" height="2" fill="#060606" />
<rect x="58" y="20" width="2" height="2" fill="#060606" />
<rect x="60" y="20" width="2" height="2" fill="#010101" />
<rect x="62" y="20" width="2" height="2" fill="#010101" />
<rect x="48" y="22" width="2" height="2" fill="#060606" />
<rect x="50" y="22" width="2" height="2" fill="#060606" />
<rect x="52" y="22" width="2" height="2" fill="#060606" />
<rect x="54" y="22" width="2" height="2" fill="#060606" />
<rect x="56" y="22" width="2" height="2" fill="#060606" />
<rect x="58" y="22" width="2" height="2" fill="#060606" />
<rect x="60" y="22" width="2" height="2" fill="#010101" />
<rect x="62" y="22" width="2" height="2" fill="#010101" />
<rect x="48" y="24" width="2" height="2" fill="#060606" />
<rect x="50" y="24" width="2" height="2" fill="#060606" />
<rect x="52" y="24" width="2" height="2" fill="#060606" />
<rect x="54" y="24" width="2" height="2" fill="#060606" />
<rect x="56" y="24" width="2" height="2" fill="#060606" />
<rect x="58" y="24" width="2" height="2" fill="#060606" />
<rect x="60" y="24" width="2" height="2" fill="#010101" />
<rect x="62" y="24" width="2" height="2" fill="#010101" />
<rect x="48" y="26" width="2" height="2" fill="#060606" />
<rect x="50" y="26" width="2" height="2" fill="#060606" />
<rect x="52" y="26" width="2" height="2" fill="#060606" />
<rect x="54" y="26" width="2" height="2" fill="#060606" />
<rect x="56" y="26" width="2" height="2" fill="#060606" />
<rect x="58" y="26" width="2" height="2" fill="#060606" />
<rect x="60" y="26" width="2" height="2" fill="#010101" />
<rect x="62" y="26" width="2" height="2" fill="#010101" />
<rect x="48" y="28" width="2" height="2" fill="#060606" />
<rect x="50" y="28" width="2" height="2" fill="#060606" />
<rect x="52" y="28" width="2" height="2" fill="#060606" />
<rect x="54" y="28" width="2" height="2" fill="#060606" />
<rect x="56" y="28" width="2" height="2" fill="#060606" />
<rect x="58" y="28" width="2" height="2" fill="#060606" />
<rect x="60" y="28" width="2" height="2" fill="#010101" />
<rect x="62" y="28" width="2" height="2" fill="#010101" />
<rect x="48" y="30" width="2" height="2" fill="#060606" />
<rect x="50" y="30" width="2" height="2" fill="#060606" />
<rect x="52" y="30" width="2" height="2" fill="#060606" />
<rect x="54" y="30" width="2" height="2" fill="#060606" />
<rect x="56" y="30" width="2" height="2" fill="#060606" />
<rect x="58" y="30" width="2" height="2" fill="#060606" />
<rect x="60" y="30" width="2" height="2" fill="#010101" />
<rect x="62" y="30" width="2" height="2" fill="#010101" />
<rect x="48" y="32" width="2" height="2" fill="#060606" />
<rect x="50" y="32" width="2" height="2" fill="#060606" />
<rect x="52" y="32" width="2" height="2" fill="#060606" />
<rect x="54" y="32" width="2" height="2" fill="#060606" />
<rect x="56" y="32" width="2" height="2" fill="#060606" />
<rect x="58" y="32" width="2" height="2" fill="#060606" />
<rect x="60" y="32" width="2" height="2" fill="#010101" />
<rect x="62" y="32" width="2" height="2" fill="#010101" />
<rect x="48" y="34" width="2" height="2" fill="#060606" />
<rect x="50" y="34" width="2" height="2" fill="#060606" />
<rect x="52" y="34" width="2" height="2" fill="#060606" />
<rect x="54" y="34" width="2" height="2" fill="#060606" />
<rect x="56" y="34" width="2" height="2" fill="#060606" />
<rect x="58" y="34" width="2" height="2" fill="#060606" />
<rect x="60" y="34" width="2" height="2" fill="#010101" />
<rect x="62" y="34" width="2" height="2" fill="#010101" />
<rect x="48" y="36" width="2" height="2" fill="#060606" />
<rect x="50" y="36" width="2" height="2" fill="#060606" />
<rect x="52" y="36" width="2" height="2" fill="#060606" />
<rect x="54" y="36" width="2" height="2" fill="#060606" />
<rect x="56" y="36" width="2" height="2" fill="#060606" />
<rect x="58" y="36" width="2" height="2" fill="#060606" />
<rect x="60" y="36" width="2" height="2" fill="#010101" />
<rect x="62" y="36" width="2" height="2" fill="#010101" />
<rect x="48" y="38" width="2" height="2" fill="#060606" />
<rect x="50" y="38" width="2" height="2" fill="#060606" />
<rect x="52" y="38" width="2" height="2" fill="#060606" />
<rect x="54" y="38" width="2" height="2" fill="#060606" />
<rect x="56" y="38" width="2" height="2" fill="#060606" />
<rect x="58" y="38" width="2" height="2" fill="#060606" />
<rect x="60" y="38" width="2" height="2" fill="#010101" />
<rect x="62" y="38" width="2" height="2" fill="#010101" />
<rect x="48" y="40" width="2" height="2" fill="#060606" />
<rect x="50" y="40" width="2" height="2" fill="#060606" />
<rect x="52" y="40" width="2" height="2" fill="#060606" />
<rect x="54" y="40" width="2" height="2" fill="#060606" />
<rect x="56" y="40" width="2" height="2" fill="#060606" />
<rect x="58" y="40" width="2" height="2" fill="#060606" />
<rect x="60" y="40" width="2" height="2" fill="#010101" />
<rect x="62" y="40" width="2" height="2" fill="#010101" />
<rect x="48" y="42" width="2" height="2" fill="#060606" />
<rect x="50" y="42" width="2" height="2" fill="#060606" />
<rect x="52" y="42" width="2" height="2" fill="#060606" />
<rect x="54" y="42" width="2" height="2" fill="#060606" />
<rect x="56" y="42" width="2" height="2" fill="#060606" />
<rect x="58" y="42" width="2" height="2" fill="#060606" />
<rect x="60" y="42" width="2" height="2" fill="#010101" />
<rect x="62" y="42" width="2" height="2" fill="#010101" />
<rect x="48" y="44" width="2" height="2" fill="#060606" />
<rect x="50" y="44" width="2" height="2" fill="#060606" />
<rect x="52" y="44" width="2" height="2" fill="#060606" />
<rect x="54" y="44" width="2" height="2" fill="#060606" />
<rect x="56" y="44" width="2" height="2" fill="#060606" />
<rect x="58" y="44" width="2" height="2" fill="#060606" />
<rect x="60" y="44" width="2" height="2" fill="#010101" />
<rect x="62" y="44" width="2" height="2" fill="#010101" />
<rect x="48" y="46" width="2" height="2" fill="#060606" />
<rect x="50" y="46" width="2" height="2" fill="#060606" />
<rect x="52" y="46" width="2" height="2" fill="#060606" />
<rect x="54" y="46" width="2" height="2" fill="#060606" />
<rect x="56" y="46" width="2" height="2" fill="#060606" />
<rect x="58" y="46" width="2" height="2" fill="#060606" />
<rect x="60" y="46" width="2" height="2" fill="#010101" />
<rect x="62" y="46" width="2" height="2" fill="#010101" />
<rect x="48" y="48" width="2" height="2" fill="#060606" />
<rect x="50" y="48" width="2" height="2" fill="#060606" />
<rect x="52" y="48" width="2" height="2" fill="#060606" />
<rect x="54" y="48" width="2" height="2" fill="#060606" />
<rect x="56" y="48" width="2" height="2" fill="#060606" />
<rect x="58" y="48" width="2" height="2" fill="#060606" />
<rect x="60" y="48" width="2" height="2" fill="#010101" />
<rect x="62" y="48" width="2" height="2" fill="#010101" />
<rect x="48" y="50" width="2" height="2" fill="#060606" />
<rect x="50" y="50" width="2" height="2" fill="#060606" />
<rect x="52" y="50" width="2" height="2" fill="#060606" />
<rect x="54" y="50" width="2" height="2" fill="#060606" />
<rect x="56" y="50" width="2" height="2" fill="#060606" />
<rect x="58" y="50" width="2" height="2" fill="#060606" />
<rect x="60" y="50" width="2" height="2" fill="#010101" />
<rect x="62" y="50" width="2" height="2" fill="#010101" />
<rect x="48" y="52" width="2" height="2" fill="#060606" />
<rect x="50" y="52" width="2" height="2" fill="#060606" />
<rect x="52" y="52" width="2" height="2" fill="#060606" />
<rect x="54" y="52" width="2" height="2" fill="#060606" />
<rect x="56" y="52" width="2" height="2" fill="#060606" />
<rect x="58" y="52" width="2" height="2" fill="#060606" />
<rect x="60" y="52" width="2" height="2" fill="#010101" />
<rect x="62" y="52" width="2" height="2" fill="#010101" />
<rect x="48" y="54" width="2" height="2" fill="#060606" />
<rect x="50" y="54" width="2" height="2" fill="#060606" />
<rect x="52" y="54" width="2" height="2" fill="#060606" />
<rect x="54" y="54" width="2" height="2" fill="#060606" />
<rect x="56" y="54" width="2" height="2" fill="#060606" />
<rect x="58" y="54" width="2" height="2" fill="#060606" />
<rect x="60" y="54" width="2" height="2" fill="#010101" />
<rect x="62" y="54" width="2" height="2" fill="#010101" />
<rect x="48" y="56" width="2" height="2" fill="#060606" />
<rect x="50" y="56" width="2" height="2" fill="#060606" />
<rect x="52" y="56" width="2" height="2" fill="#060606" />
<rect x="54" y="56" width="2" height="2" fill="#060606" />
<rect x="56" y="56" width="2" height="2" fill="#060606" />
<rect x="58" y="56" width="2" height="2" fill="#060606" />
<rect x="60" y="56" width="2" height="2" fill="#010101" />
<rect x="62" y="56" width="2" height="2" fill="#010101" />
<rect x="48" y="58" width="2" height="2" fill="#060606" />
<rect x="50" y="58" width="2" height="2" fill="#060606" />
<rect x="52" y="58" width="2" height="2" fill="#060606" />
<rect x="54" y="58" width="2" height="2" fill="#060606" />
<rect x="56" y="58" width="2" height="2" fill="#060606" />
<rect x="58" y="58" width="2" height="2" fill="#060606" />
<rect x="60" y="58" width="2" height="2" fill="#010101" />
<rect x="62" y="58" width="2" height="2" fill="#010101" />
<rect x="48" y="60" width="2" height="2" fill="#010101" />
<rect x="50" y="60" width="2" height="2" fill="#010101" />
<rect x="52" y="60" width="2" height="2" fill="#010101" />
<rect x="54" y="60" width="2" height="2" fill="#010101" />
<rect x="56" y="60" width="2" height="2" fill="#010101" />
<rect x="58" y="60" width="2" height="2" fill="#010101" />
<rect x="60" y="60" width="2" height="2" fill="#010101" />
<rect x="62" y="60" width="2" height="2" fill="#010101" />
<rect x="48" y="62" width="2" height="2" fill="#010101" />
<rect x="50" y="62" width="2" height="2" fill="#010101" />
<rect x="52" y="62" width="2" height="2" fill="#010101" />
<rect x="54" y="62" width="2" height="2" fill="#010101" />
<rect x="56" y="62" width="2" height="2" fill="#010101" />
<rect x="58" y="62" width="2" height="2" fill="#010101" />
<rect x="60" y="62" width="2" height="2" fill="#010101" />
<rect x="62" y="62" width="2" height="2" fill="#010101" />
<rect x="48" y="64" width="2" height="2" fill="#0B0B0B" />
<rect x="50" y="64" width="2" height="2" fill="#0B0B0B" />
<rect x="52" y="64" width="2" height="2" fill="#0B0B0B" />
<rect x="54" y="64" width="2" height="2" fill="#0B0B0B" />
<rect x="56" y="64" width="2" height="2" fill="#0B0B0B" />
<rect x="58" y="64" width="2" height="2" fill="#0B0B0B" />
<rect x="60" y="64" width="2" height="2" fill="#0B0B0B" />
<rect x="62" y="64" width="2" height="2" fill="#0B0B0B" />
<rect x="48" y="66" width="2" height="2" fill="#0B0B0B" />
<rect x="50" y="66" width="2" height="2" fill="#0B0B0B" />
<rect x="52" y="66" width="2" height="2" fill="#0B0B0B" />
<rect x="54" y="66" width="2" height="2" fill="#0B0B0B" />
<rect x="56" y="66" width="2" height="2" fill="#0B0B0B" />
<rect x="58" y="66" width="2" height="2" fill="#0B0B0B" />
<rect x="60" y="66" width="2" height="2" fill="#0B0B0B" />
<rect x="62" y="66" width="2" height="2" fill="#0B0B0B" />
<rect x="48" y="68" width="2" height="2" fill="#0B0B0B" />
<rect x="50" y="68" width="2" height="2" fill="#0B0B0B" />
<rect x="52" y="68" width="2" height="2" fill="#060606" />
<rect x="54" y="68" width="2" height="2" fill="#060606" />
<rect x="56" y="68" width="2" height="2" fill="#060606" />
<rect x="58" y="68" width="2" height="2" fill="#060606" />
<rect x="60" y="68" width="2" height="2" fill="#060606" />
<rect x="62" y="68" width="2" height="2" fill="#060606" />
<rect x="48" y="70" width="2" height="2" fill="#0B0B0B" />
<rect x="50" y="70" width="2" height="2" fill="#0B0B0B" />
<rect x="52" y="70" width="2" height="2" fill="#060606" />
<rect x="54" y="70" width="2" height="2" fill="#060606" />
<rect x="56" y="70" width="2" height="2" fill="#060606" />
<rect x="58" y="70" width="2" height="2" fill="#060606" />
<rect x="60" y="70" width="2" height="2" fill="#060606" />
<rect x="62" y="70" width="2" height="2" fill="#060606" />
<rect x="48" y="72" width="2" height="2" fill="#0B0B0B" />
<rect x="50" y="72" width="2" height="2" fill="#0B0B0B" />
<rect x="52" y="72" width="2" height="2" fill="#060606" />
<rect x="54" y="72" width="2" height="2" fill="#060606" />
<rect x="56" y="72" width="2" height="2" fill="#060606" />
<rect x="58" y="72" width="2" height="2" fill="#060606" />
<rect x="60" y="72" width="2" height="2" fill="#060606" />
<rect x="62" y="72" width="2" height="2" fill="#060606" />
<rect x="48" y="74" width="2" height="2" fill="#0B0B0B" />
<rect x="50" y="74" width="2" height="2" fill="#0B0B0B" />
<rect x="52" y="74" width="2" height="2" fill="#060606" />
<rect x="54" y="74" width="2" height="2" fill="#060606" />
<rect x="56" y="74" width="2" height="2" fill="#060606" />
<rect x="58" y="74" width="2" height="2" fill="#060606" />
<rect x="60" y="74" width="2" height="2" fill="#060606" />
<rect x="62" y="74" width="2" height="2" fill="#060606" />
<rect x="48" y="76" width="2" height="2" fill="#0B0B0B" />
<rect x="50" y="76" width="2" height="2" fill="#0B0B0B" />
<rect x="52" y="76" width="2" height="2" fill="#060606" />
<rect x="54" y="76" width="2" height="2" fill="#060606" />
<rect x="56" y="76" width="2" height="2" fill="#060606" />
<rect x="58" y="76" width="2" height="2" fill="#060606" />
<rect x="60" y="76" width="2" height="2" fill="#060606" />
<rect x="62" y="76" width="2" height="2" fill="#060606" />
<rect x="48" y="78" width="2" height="2" fill="#0B0B0B" />
<rect x="50" y="78" width="2" height="2" fill="#0B0B0B" />
<rect x="52" y="78" width="2" height="2" fill="#060606" />
<rect x="54" y="78" width="2" height="2" fill="#060606" />
<rect x="56" y="78" width="2" height="2" fill="#060606" />
<rect x="58" y="78" width="2" height="2" fill="#060606" />
<rect x="60" y="78" width="2" height="2" fill="#060606" />
<rect x="62" y="78" width="2" height="2" fill="#060606" />
<rect x="48" y="80" width="2" height="2" fill="#0B0B0B" />
<rect x="50" y="80" width="2" height="2" fill="#0B0B0B" />
<rect x="52" y="80" width="2" height="2" fill="#060606" />
<rect x="54" y="80" width="2" height="2" fill="#060606" />
<rect x="56" y="80" width="2" height="2" fill="#060606" />
<rect x="58" y="80" width="2" height="2" fill="#060606" />
<rect x="60" y="80" width="2" height="2" fill="#060606" />
<rect x="62" y="80" width="2" height="2" fill="#060606" />
<rect x="48" y="82" width="2" height="2" fill="#0B0B0B" />
<rect x="50" y="82" width="2" height="2" fill="#0B0B0B" />
<rect x="52" y="82" width="2" height="2" fill="#060606" />
<rect x="54" y="82" width="2" height="2" fill="#060606" />
<rect x="56" y="82" width="2" height="2" fill="#060606" />
<rect x="58" y="82" width="2" height="2" fill="#060606" />
<rect x="60" y="82" width="2" height="2" fill="#060606" />
<rect x="62" y="82" width="2" height="2" fill="#060606" />
<rect x="48" y="84" width="2" height="2" fill="#0B0B0B" />
<rect x="50" y="84" width="2" height="2" fill="#0B0B0B" />
<rect x="52" y="84" width="2" height="2" fill="#060606" />
<rect x="54" y="84" width="2" height="2" fill="#060606" />
<rect x="56" y="84" width="2" height="2" fill="#060606" />
<rect x="58" y="84" width="2" height="2" fill="#060606" />
<rect x="60" y="84" width="2" height="2" fill="#060606" />
<rect x="62" y="84" width="2" height="2" fill="#060606" />
<rect x="48" y="86" width="2" height="2" fill="#0B0B0B" />
<rect x="50" y="86" width="2" height="2" fill="#0B0B0B" />
<rect x="52" y="86" width="2" height="2" fill="#060606" />
<rect x="54" y="86" width="2" height="2" fill="#060606" />
<rect x="56" y="86" width="2" height="2" fill="#060606" />
<rect x="58" y="86" width="2" height="2" fill="#060606" />
<rect x="60" y="86" width="2" height="2" fill="#060606" />
<rect x="62" y="86" width="2" height="2" fill="#060606" />
<rect x="48" y="88" width="2" height="2" fill="#0B0B0B" />
<rect x="50" y="88" width="2" height="2" fill="#0B0B0B" />
<rect x="52" y="88" width="2" height="2" fill="#060606" />
<rect x="54" y="88" width="2" height="2" fill="#060606" />
<rect x="56" y="88" width="2" height="2" fill="#060606" />
<rect x="58" y="88" width="2" height="2" fill="#060606" />
<rect x="60" y="88" width="2" height="2" fill="#060606" />
<rect x="62" y="88" width="2" height="2" fill="#060606" />
<rect x="48" y="90" width="2" height="2" fill="#0B0B0B" />
<rect x="50" y="90" width="2" height="2" fill="#0B0B0B" />
<rect x="52" y="90" width="2" height="2" fill="#060606" />
<rect x="54" y="90" width="2" height="2" fill="#060606" />
<rect x="56" y="90" width="2" height="2" fill="#060606" />
<rect x="58" y="90" width="2" height="2" fill="#060606" />
<rect x="60" y="90" width="2" height="2" fill="#060606" />
<rect x="62" y="90" width="2" height="2" fill="#060606" />
<rect x="48" y="92" width="2" height="2" fill="#0B0B0B" />
<rect x="50" y="92" width="2" height="2" fill="#0B0B0B" />
<rect x="52" y="92" width="2" height="2" fill="#060606" />
<rect x="54" y="92" width="2" height="2" fill="#060606" />
<rect x="56" y="92" width="2" height="2" fill="#060606" />
<rect x="58" y="92" width="2" height="2" fill="#060606" />
<rect x="60" y="92" width="2" height="2" fill="#060606" />
<rect x="62" y="92" width="2" height="2" fill="#060606" />
<rect x="48" y="94" width="2" height="2" fill="#0B0B0B" />
<rect x="50" y="94" width="2" height="2" fill="#0B0B0B" />
<rect x="52" y="94" width="2" height="2" fill="#060606" />
<rect x="54" y="94" width="2" height="2" fill="#060606" />
<rect x="56" y="94" width="2" height="2" fill="#060606" />
<rect x="58" y="94" width="2" height="2" fill="#060606" />
<rect x="60" y="94" width="2" height="2" fill="#060606" />
<rect x="62" y="94" width="2" height="2" fill="#060606" />
<rect x="48" y="96" width="2" height="2" fill="#0B0B0B" />
<rect x="50" y="96" width="2" height="2" fill="#0B0B0B" />
<rect x="52" y="96" width="2" height="2" fill="#060606" />
<rect x="54" y="96" width="2" height="2" fill="#060606" />
<rect x="56" y="96" width="2" height="2" fill="#060606" />
<rect x="58" y="96" width="2" height="2" fill="#060606" />
<rect x="60" y="96" width="2" height="2" fill="#060606" />
<rect x="62" y="96" width="2" height="2" fill="#060606" />
<rect x="48" y="98" width="2" height="2" fill="#0B0B0B" />
<rect x="50" y="98" width="2" height="2" fill="#0B0B0B" />
<rect x="52" y="98" width="2" height="2" fill="#060606" />
<rect x="54" y="98" width="2" height="2" fill="#060606" />
<rect x="56" y="98" width="2" height="2" fill="#060606" />
<rect x="58" y="98" width="2" height="2" fill="#060606" />
<rect x="60" y="98" width="2" height="2" fill="#060606" />
<rect x="62" y="98" width="2" height="2" fill="#060606" />
<rect x="48" y="100" width="2" height="2" fill="#0B0B0B" />
<rect x="50" y="100" width="2" height="2" fill="#0B0B0B" />
<rect x="52" y="100" width="2" height="2" fill="#060606" />
<rect x="54" y="100" width="2" height="2" fill="#060606" />
<rect x="56" y="100" width="2" height="2" fill="#060606" />
<rect x="58" y="100" width="2" height="2" fill="#060606" />
<rect x="60" y="100" width="2" height="2" fill="#060606" />
<rect x="62" y="100" width="2" height="2" fill="#060606" />
<rect x="48" y="102" width="2" height="2" fill="#0B0B0B" />
<rect x="50" y="102" width="2" height="2" fill="#0B0B0B" />
<rect x="52" y="102" width="2" height="2" fill="#060606" />
<rect x="54" y="102" width="2" height="2" fill="#060606" />
<rect x="56" y="102" width="2" height="2" fill="#060606" />
<rect x="58" y="102" width="2" height="2" fill="#060606" />
<rect x="60" y="102" width="2" height="2" fill="#060606" />
<rect x="62" y="102" width="2" height="2" fill="#060606" />
<rect x="48" y="104" width="2" height="2" fill="#0B0B0B" />
<rect x="50" y="104" width="2" height="2" fill="#0B0B0B" />
<rect x="52" y="104" width="2" height="2" fill="#060606" />
<rect x="54" y="104" width="2" height="2" fill="#060606" />
<rect x="56" y="104" width="2" height="2" fill="#060606" />
<rect x="58" y="104" width="2" height="2" fill="#060606" />
<rect x="60" y="104" width="2" height="2" fill="#060606" />
<rect x="62" y="104" width="2" height="2" fill="#060606" />
<rect x="48" y="106" width="2" height="2" fill="#060606" />
<rect x="50" y="106" width="2" height="2" fill="#060606" />
<rect x="52" y="106" width="2" height="2" fill="#060606" />
<rect x="54" y="106" width="2" height="2" fill="#060606" />
<rect x="56" y="106" width="2" height="2" fill="#060606" />
<rect x="58" y="106" width="2" height="2" fill="#060606" />
<rect x="60" y="106" width="2" height="2" fill="#060606" />
<rect x="62" y="106" width="2" height="2" fill="#060606" />
<rect x="48" y="108" width="2" height="2" fill="#060606" />
<rect x="50" y="108" width="2" height="2" fill="#060606" />
<rect x="52" y="108" width="2" height="2" fill="#060606" />
<rect x="54" y="108" width="2" height="2" fill="#060606" />
<rect x="56" y="108" width="2" height="2" fill="#060606" />
<rect x="58" y="108" width="2" height="2" fill="#060606" />
<rect x="60" y="108" width="2" height="2" fill="#060606" />
<rect x="62" y="108" width="2" height="2" fill="#060606" />
<rect x="48" y="110" width="2" height="2" fill="#060606" />
<rect x="50" y="110" width="2" height="2" fill="#060606" />
<rect x="52" y="110" width="2" height="2" fill="#060606" />
<rect x="54" y="110" width="2" height="2" fill="#060606" />
<rect x="56" y="110" width="2" height="2" fill="#060606" />
<rect x="58" y="110" width="2" height="2" fill="#060606" />
<rect x="60" y="110" width="2" height="2" fill="#060606" />
<rect x="62" y="110" width="2" height="2" fill="#060606" />
<rect x="48" y="112" width="2" height="2" fill="#060606" />
<rect x="50" y="112" width="2" height="2" fill="#060606" />
<rect x="52" y="112" width="2" height="2" fill="#060606" />
<rect x="54" y="112" width="2" height="2" fill="#060606" />
<rect x="56" y="112" width="2" height="2" fill="#060606" />
<rect x="58" y="112" width="2" height="2" fill="#060606" />
<rect x="60" y="112" width="2" height="2" fill="#060606" />
<rect x="62" y="112" width="2" height="2" fill="#060606" />
<rect x="48" y="114" width="2" height="2" fill="#060606" />
<rect x="50" y="114" width="2" height="2" fill="#060606" />
<rect x="52" y="114" width="2" height="2" fill="#060606" />
<rect x="54" y="114" width="2" height="2" fill="#060606" />
<rect x="56" y="114" width="2" height="2" fill="#060606" />
<rect x="58" y="114" width="2" height="2" fill="#060606" />
<rect x="60" y="114" width="2" height="2" fill="#060606" />
<rect x="62" y="114" width="2" height="2" fill="#060606" />
<rect x="48" y="116" width="2" height="2" fill="#060606" />
<rect x="50" y="116" width="2" height="2" fill="#060606" />
<rect x="52" y="116" width="2" height="2" fill="#060606" />
<rect x="54" y="116" width="2" height="2" fill="#060606" />
<rect x="56" y="116" width="2" height="2" fill="#060606" />
<rect x="58" y="116" width="2" height="2" fill="#060606" />
<rect x="60" y="116" width="2" height="2" fill="#060606" />
<rect x="62" y="116" width="2" height="2" fill="#060606" />
<rect x="48" y="118" width="2" height="2" fill="#060606" />
<rect x="50" y="118" width="2" height="2" fill="#060606" />
<rect x="52" y="118" width="2" height="2" fill="#060606" />
<rect x="54" y="118" width="2" height="2" fill="#060606" />
<rect x="56" y="118" width="2" height="2" fill="#060606" />
<rect x="58" y="118" width="2" height="2" fill="#060606" />
<rect x="60" y="118" width="2" height="2" fill="#060606" />
<rect x="62" y="118" width="2" height="2" fill="#060606" />
<rect x="48" y="120" width="2" height="2" fill="#060606" />
<rect x="50" y="120" width="2" height="2" fill="#060606" />
<rect x="52" y="120" width="2" height="2" fill="#060606" />
<rect x="54" y="120" width="2" height="2" fill="#060606" />
<rect x="56" y="120" width="2" height="2" fill="#060606" />
<rect x="58" y="120" width="2" height="2" fill="#060606" />
<rect x="60" y="120" width="2" height="2" fill="#060606" />
<rect x="62" y="120" width="2" height="2" fill="#060606" />
<rect x="48" y="122" width="2" height="2" fill="#060606" />
<rect x="50" y="122" width="2" height="2" fill="#060606" />
<rect x="52" y="122" width="2" height="2" fill="#060606" />
<rect x="54" y="122" width="2" height="2" fill="#060606" />
<rect x="56" y="122" width="2" height="2" fill="#060606" />
<rect x="58" y="122" width="2" height="2" fill="#060606" />
<rect x="60" y="122" width="2" height="2" fill="#060606" />
<rect x="62" y="122" width="2" height="2" fill="#060606" />
<rect x="48" y="124" width="2" height="2" fill="#060606" />
<rect x="50" y="124" width="2" height="2" fill="#060606" />
<rect x="52" y="124" width="2" height="2" fill="#060606" />
<rect x="54" y="124" width="2" height="2" fill="#060606" />
<rect x="56" y="124" width="2" height="2" fill="#060606" />
<rect x="58" y="124" width="2" height="2" fill="#060606" />
<rect x="60" y="124" width="2" height="2" fill="#060606" />
<rect x="62" y="124" width="2" height="2" fill="#060606" />
<rect x="48" y="126" width="2" height="2" fill="#060606" />
<rect x="50" y="126" width="2" height="2" fill="#060606" />
<rect x="52" y="126" width="2" height="2" fill="#060606" />
<rect x="54" y="126" width="2" height="2" fill="#060606" />
<rect x="56" y="126" width="2" height="2" fill="#060606" />
<rect x="58" y="126" width="2" height="2" fill="#060606" />
<rect x="60" y="126" width="2" height="2" fill="#060606" />
<rect x="62" y="126" width="2" height="2" fill="#060606" />
</svg>