<?xml version="1.0" encoding="UTF-8" ?>
<svg version="1.1" width="64" height="128" xmlns="http://www.w3.org/2000/svg" shape-rendering="crispEdges">
<rect x="58" y="0" width="2" height="2" fill="#060606" />
<rect x="60" y="0" width="2" height="2" fill="#060606" />
<rect x="62" y="0" width="2" height="2" fill="#060606" />
<rect x="56" y="2" width="2" height="2" fill="#060606" />
<rect x="58" y="2" width="2" height="2" fill="#060606" />
<rect x="60" y="2" width="2" height="2" fill="#060606" />
<rect x="62" y="2" width="2" height="2" fill="#060606" />
<rect x="56" y="4" width="2" height="2" fill="#060606" />
<rect x="58" y="4" width="2" height="2" fill="#060606" />
<rect x="60" y="4" width="2" height="2" fill="#060606" />
<rect x="62" y="4" width="2" height="2" fill="#060606" />
<rect x="56" y="6" width="2" height="2" fill="#060606" />
<rect x="58" y="6" width="2" height="2" fill="#060606" />
<rect x="60" y="6" width="2" height="2" fill="#060606" />
<rect x="62" y="6" width="2" height="2" fill="#060606" />
<rect x="52" y="8" width="2" height="2" fill="#060606" />
<rect x="54" y="8" width="2" height="2" fill="#060606" />
<rect x="56" y="8" width="2" height="2" fill="#060606" />
<rect x="58" y="8" width="2" height="2" fill="#060606" />
<rect x="60" y="8" width="2" height="2" fill="#060606" />
<rect x="62" y="8" width="2" height="2" fill="#060606" />
<rect x="50" y="10" width="2" height="2" fill="#060606" />
<rect x="52" y="10" width="2" height="2" fill="#060606" />
<rect x="54" y="10" width="2" height="2" fill="#060606" />
<rect x="56" y="10" width="2" height="2" fill="#060606" />
<rect x="58" y="10" width="2" height="2" fill="#060606" />
<rect x="60" y="10" width="2" height="2" fill="#060606" />
<rect x="62" y="10" width="2" height="2" fill="#060606" />
<rect x="50" y="12" width="2" height="2" fill="#060606" />
<rect x="52" y="12" width="2" height="2" fill="#060606" />
<rect x="54" y="12" width="2" height="2" fill="#060606" />
<rect x="56" y="12" width="2" height="2" fill="#060606" />
<rect x="58" y="12" width="2" height="2" fill="#060606" />
<rect x="60" y="12" width="2" height="2" fill="#060606" />
<rect x="62" y="12" width="2" height="2" fill="#060606" />
<rect x="46" y="14" width="2" height="2" fill="#060606" />
<rect x="48" y="14" width="2" height="2" fill="#060606" />
<rect x="50" y="14" width="2" height="2" fill="#060606" />
<rect x="52" y="14" width="2" height="2" fill="#060606" />
<rect x="54" y="14" width="2" height="2" fill="#060606" />
<rect x="56" y="14" width="2" height="2" fill="#060606" />
<rect x="58" y="14" width="2" height="2" fill="#060606" />
<rect x="60" y="14" width="2" height="2" fill="#060606" />
<rect x="62" y="14" width="2" height="2" fill="#060606" />
<rect x="46" y="16" width="2" height="2" fill="#060606" />
<rect x="48" y="16" width="2" height="2" fill="#060606" />
<rect x="50" y="16" width="2" height="2" fill="#060606" />
<rect x="52" y="16" width="2" height="2" fill="#060606" />
<rect x="54" y="16" width="2" height="2" fill="#060606" />
<rect x="56" y="16" width="2" height="2" fill="#060606" />
<rect x="58" y="16" width="2" height="2" fill="#060606" />
<rect x="60" y="16" width="2" height="2" fill="#060606" />
<rect x="62" y="16" width="2" height="2" fill="#060606" />
<rect x="42" y="18" width="2" height="2" fill="#060606" />
<rect x="44" y="18" width="2" height="2" fill="#060606" />
<rect x="46" y="18" width="2" height="2" fill="#060606" />
<rect x="48" y="18" width="2" height="2" fill="#060606" />
<rect x="50" y="18" width="2" height="2" fill="#060606" />
<rect x="52" y="18" width="2" height="2" fill="#060606" />
<rect x="54" y="18" width="2" height="2" fill="#060606" />
<rect x="56" y="18" width="2" height="2" fill="#060606" />
<rect x="58" y="18" width="2" height="2" fill="#010101" />
<rect x="60" y="18" width="2" height="2" fill="#010101" />
<rect x="62" y="18" width="2" height="2" fill="#060606" />
<rect x="40" y="20" width="2" height="2" fill="#060606" />
<rect x="42" y="20" width="2" height="2" fill="#060606" />
<rect x="44" y="20" width="2" height="2" fill="#060606" />
<rect x="46" y="20" width="2" height="2" fill="#060606" />
<rect x="48" y="20" width="2" height="2" fill="#060606" />
<rect x="50" y="20" width="2" height="2" fill="#060606" />
<rect x="52" y="20" width="2" height="2" fill="#060606" />
<rect x="54" y="20" width="2" height="2" fill="#060606" />
<rect x="56" y="20" width="2" height="2" fill="#060606" />
<rect x="58" y="20" width="2" height="2" fill="#010101" />
<rect x="60" y="20" width="2" height="2" fill="#010101" />
<rect x="62" y="20" width="2" height="2" fill="#060606" />
<rect x="40" y="22" width="2" height="2" fill="#060606" />
<rect x="42" y="22" width="2" height="2" fill="#060606" />
<rect x="44" y="22" width="2" height="2" fill="#060606" />
<rect x="46" y="22" width="2" height="2" fill="#060606" />
<rect x="48" y="22" width="2" height="2" fill="#060606" />
<rect x="50" y="22" width="2" height="2" fill="#060606" />
<rect x="52" y="22" width="2" height="2" fill="#060606" />
<rect x="54" y="22" width="2" height="2" fill="#060606" />
<rect x="56" y="22" width="2" height="2" fill="#060606" />
<rect x="58" y="22" width="2" height="2" fill="#010101" />
<rect x="60" y="22" width="2" height="2" fill="#010101" />
<rect x="34" y="24" width="2" height="2" fill="#060606" />
<rect x="36" y="24" width="2" height="2" fill="#060606" />
<rect x="38" y="24" width="2" height="2" fill="#060606" />
<rect x="40" y="24" width="2" height="2" fill="#060606" />
<rect x="42" y="24" width="2" height="2" fill="#060606" />
<rect x="44" y="24" width="2" height="2" fill="#060606" />
<rect x="46" y="24" width="2" height="2" fill="#060606" />
<rect x="48" y="24" width="2" height="2" fill="#060606" />
<rect x="50" y="24" width="2" height="2" fill="#060606" />
<rect x="52" y="24" width="2" height="2" fill="#060606" />
<rect x="54" y="24" width="2" height="2" fill="#010101" />
<rect x="56" y="24" width="2" height="2" fill="#060606" />
<rect x="58" y="24" width="2" height="2" fill="#010101" />
<rect x="60" y="24" width="2" height="2" fill="#010101" />
<rect x="34" y="26" width="2" height="2" fill="#060606" />
<rect x="36" y="26" width="2" height="2" fill="#060606" />
<rect x="38" y="26" width="2" height="2" fill="#060606" />
<rect x="40" y="26" width="2" height="2" fill="#060606" />
<rect x="42" y="26" width="2" height="2" fill="#060606" />
<rect x="44" y="26" width="2" height="2" fill="#060606" />
<rect x="46" y="26" width="2" height="2" fill="#060606" />
<rect x="48" y="26" width="2" height="2" fill="#060606" />
<rect x="50" y="26" width="2" height="2" fill="#060606" />
<rect x="52" y="26" width="2" height="2" fill="#010101" />
<rect x="54" y="26" width="2" height="2" fill="#010101" />
<rect x="56" y="26" width="2" height="2" fill="#010101" />
<rect x="34" y="28" width="2" height="2" fill="#060606" />
<rect x="36" y="28" width="2" height="2" fill="#060606" />
<rect x="38" y="28" width="2" height="2" fill="#060606" />
<rect x="40" y="28" width="2" height="2" fill="#060606" />
<rect x="42" y="28" width="2" height="2" fill="#060606" />
<rect x="44" y="28" width="2" height="2" fill="#060606" />
<rect x="46" y="28" width="2" height="2" fill="#060606" />
<rect x="48" y="28" width="2" height="2" fill="#060606" />
<rect x="50" y="28" width="2" height="2" fill="#010101" />
<rect x="52" y="28" width="2" height="2" fill="#010101" />
<rect x="54" y="28" width="2" height="2" fill="#010101" />
<rect x="32" y="30" width="2" height="2" fill="#060606" />
<rect x="34" y="30" width="2" height="2" fill="#060606" />
<rect x="36" y="30" width="2" height="2" fill="#060606" />
<rect x="38" y="30" width="2" height="2" fill="#060606" />
<rect x="40" y="30" width="2" height="2" fill="#060606" />
<rect x="42" y="30" width="2" height="2" fill="#060606" />
<rect x="44" y="30" width="2" height="2" fill="#060606" />
<rect x="46" y="30" width="2" height="2" fill="#060606" />
<rect x="48" y="30" width="2" height="2" fill="#010101" />
<rect x="50" y="30" width="2" height="2" fill="#010101" />
<rect x="30" y="32" width="2" height="2" fill="#060606" />
<rect x="32" y="32" width="2" height="2" fill="#060606" />
<rect x="34" y="32" width="2" height="2" fill="#060606" />
<rect x="36" y="32" width="2" height="2" fill="#060606" />
<rect x="38" y="32" width="2" height="2" fill="#060606" />
<rect x="40" y="32" width="2" height="2" fill="#060606" />
<rect x="42" y="32" width="2" height="2" fill="#060606" />
<rect x="44" y="32" width="2" height="2" fill="#060606" />
<rect x="46" y="32" width="2" height="2" fill="#060606" />
<rect x="48" y="32" width="2" height="2" fill="#010101" />
<rect x="50" y="32" width="2" height="2" fill="#010101" />
<rect x="30" y="34" width="2" height="2" fill="#060606" />
<rect x="32" y="34" width="2" height="2" fill="#060606" />
<rect x="34" y="34" width="2" height="2" fill="#060606" />
<rect x="36" y="34" width="2" height="2" fill="#060606" />
<rect x="38" y="34" width="2" height="2" fill="#060606" />
<rect x="40" y="34" width="2" height="2" fill="#060606" />
<rect x="42" y="34" width="2" height="2" fill="#060606" />
<rect x="44" y="34" width="2" height="2" fill="#060606" />
<rect x="46" y="34" width="2" height="2" fill="#010101" />
<rect x="48" y="34" width="2" height="2" fill="#010101" />
<rect x="50" y="34" width="2" height="2" fill="#010101" />
<rect x="24" y="36" width="2" height="2" fill="#010101" />
<rect x="26" y="36" width="2" height="2" fill="#060606" />
<rect x="28" y="36" width="2" height="2" fill="#060606" />
<rect x="30" y="36" width="2" height="2" fill="#060606" />
<rect x="32" y="36" width="2" height="2" fill="#060606" />
<rect x="34" y="36" width="2" height="2" fill="#060606" />
<rect x="36" y="36" width="2" height="2" fill="#060606" />
<rect x="38" y="36" width="2" height="2" fill="#060606" />
<rect x="40" y="36" width="2" height="2" fill="#060606" />
<rect x="42" y="36" width="2" height="2" fill="#010101" />
<rect x="44" y="36" width="2" height="2" fill="#010101" />
<rect x="46" y="36" width="2" height="2" fill="#010101" />
<rect x="48" y="36" width="2" height="2" fill="#010101" />
<rect x="24" y="38" width="2" height="2" fill="#010101" />
<rect x="26" y="38" width="2" height="2" fill="#060606" />
<rect x="28" y="38" width="2" height="2" fill="#060606" />
<rect x="30" y="38" width="2" height="2" fill="#060606" />
<rect x="32" y="38" width="2" height="2" fill="#060606" />
<rect x="34" y="38" width="2" height="2" fill="#060606" />
<rect x="36" y="38" width="2" height="2" fill="#060606" />
<rect x="38" y="38" width="2" height="2" fill="#060606" />
<rect x="40" y="38" width="2" height="2" fill="#010101" />
<rect x="42" y="38" width="2" height="2" fill="#010101" />
<rect x="44" y="38" width="2" height="2" fill="#010101" />
<rect x="26" y="40" width="2" height="2" fill="#010101" />
<rect x="28" y="40" width="2" height="2" fill="#060606" />
<rect x="30" y="40" width="2" height="2" fill="#060606" />
<rect x="32" y="40" width="2" height="2" fill="#060606" />
<rect x="34" y="40" width="2" height="2" fill="#060606" />
<rect x="36" y="40" width="2" height="2" fill="#060606" />
<rect x="38" y="40" width="2" height="2" fill="#060606" />
<rect x="40" y="40" width="2" height="2" fill="#010101" />
<rect x="42" y="40" width="2" height="2" fill="#010101" />
<rect x="26" y="42" width="2" height="2" fill="#010101" />
<rect x="28" y="42" width="2" height="2" fill="#010101" />
<rect x="30" y="42" width="2" height="2" fill="#010101" />
<rect x="32" y="42" width="2" height="2" fill="#010101" />
<rect x="34" y="42" width="2" height="2" fill="#060606" />
<rect x="36" y="42" width="2" height="2" fill="#060606" />
<rect x="38" y="42" width="2" height="2" fill="#010101" />
<rect x="40" y="42" width="2" height="2" fill="#010101" />
<rect x="42" y="42" width="2" height="2" fill="#010101" />
<rect x="26" y="44" width="2" height="2" fill="#010101" />
<rect x="28" y="44" width="2" height="2" fill="#010101" />
<rect x="30" y="44" width="2" height="2" fill="#010101" />
<rect x="32" y="44" width="2" height="2" fill="#060606" />
<rect x="34" y="44" width="2" height="2" fill="#010101" />
<rect x="36" y="44" width="2" height="2" fill="#010101" />
<rect x="38" y="44" width="2" height="2" fill="#010101" />
<rect x="40" y="44" width="2" height="2" fill="#010101" />
<rect x="32" y="46" width="2" height="2" fill="#010101" />
<rect x="34" y="46" width="2" height="2" fill="#010101" />
<rect x="36" y="46" width="2" height="2" fill="#010101" />
<rect x="38" y="46" width="2" height="2" fill="#010101" />
<rect x="40" y="46" width="2" height="2" fill="#010101" />
<rect x="36" y="48" width="2" height="2" fill="#010101" />
<rect x="30" y="76" width="2" height="2" fill="#0B0B0B" />
<rect x="32" y="76" width="2" height="2" fill="#0B0B0B" />
<rect x="26" y="78" width="2" height="2" fill="#0B0B0B" />
<rect x="28" y="78" width="2" height="2" fill="#0B0B0B" />
<rect x="30" y="78" width="2" height="2" fill="#0B0B0B" />
<rect x="32" y="78" width="2" height="2" fill="#060606" />
<rect x="34" y="78" width="2" height="2" fill="#060606" />
<rect x="22" y="80" width="2" height="2" fill="#0B0B0B" />
<rect x="24" y="80" width="2" height="2" fill="#0B0B0B" />
<rect x="26" y="80" width="2" height="2" fill="#0B0B0B" />
<rect x="28" y="80" width="2" height="2" fill="#0B0B0B" />
<rect x="30" y="80" width="2" height="2" fill="#060606" />
<rect x="32" y="80" width="2" height="2" fill="#060606" />
<rect x="34" y="80" width="2" height="2" fill="#060606" />
<rect x="36" y="80" width="2" height="2" fill="#060606" />
<rect x="38" y="80" width="2" height="2" fill="#060606" />
<rect x="22" y="82" width="2" height="2" fill="#0B0B0B" />
<rect x="24" y="82" width="2" height="2" fill="#0B0B0B" />
<rect x="26" y="82" width="2" height="2" fill="#0B0B0B" />
<rect x="28" y="82" width="2" height="2" fill="#0B0B0B" />
<rect x="30" y="82" width="2" height="2" fill="#0B0B0B" />
<rect x="32" y="82" width="2" height="2" fill="#060606" />
<rect x="34" y="82" width="2" height="2" fill="#060606" />
<rect x="36" y="82" width="2" height="2" fill="#060606" />
<rect x="38" y="82" width="2" height="2" fill="#060606" />
<rect x="40" y="82" width="2" height="2" fill="#060606" />
<rect x="22" y="84" width="2" height="2" fill="#0B0B0B" />
<rect x="24" y="84" width="2" height="2" fill="#0B0B0B" />
<rect x="26" y="84" width="2" height="2" fill="#060606" />
<rect x="28" y="84" width="2" height="2" fill="#060606" />
<rect x="30" y="84" width="2" height="2" fill="#060606" />
<rect x="32" y="84" width="2" height="2" fill="#060606" />
<rect x="34" y="84" width="2" height="2" fill="#060606" />
<rect x="36" y="84" width="2" height="2" fill="#060606" />
<rect x="38" y="84" width="2" height="2" fill="#060606" />
<rect x="40" y="84" width="2" height="2" fill="#060606" />
<rect x="22" y="86" width="2" height="2" fill="#0B0B0B" />
<rect x="24" y="86" width="2" height="2" fill="#0B0B0B" />
<rect x="26" y="86" width="2" height="2" fill="#0B0B0B" />
<rect x="28" y="86" width="2" height="2" fill="#060606" />
<rect x="30" y="86" width="2" height="2" fill="#060606" />
<rect x="32" y="86" width="2" height="2" fill="#060606" />
<rect x="34" y="86" width="2" height="2" fill="#060606" />
<rect x="36" y="86" width="2" height="2" fill="#060606" />
<rect x="38" y="86" width="2" height="2" fill="#060606" />
<rect x="40" y="86" width="2" height="2" fill="#060606" />
<rect x="24" y="88" width="2" height="2" fill="#0B0B0B" />
<rect x="26" y="88" width="2" height="2" fill="#060606" />
<rect x="28" y="88" width="2" height="2" fill="#0B0B0B" />
<rect x="30" y="88" width="2" height="2" fill="#060606" />
<rect x="32" y="88" width="2" height="2" fill="#060606" />
<rect x="34" y="88" width="2" height="2" fill="#060606" />
<rect x="36" y="88" width="2" height="2" fill="#060606" />
<rect x="38" y="88" width="2" height="2" fill="#060606" />
<rect x="40" y="88" width="2" height="2" fill="#060606" />
<rect x="42" y="88" width="2" height="2" fill="#060606" />
<rect x="44" y="88" width="2" height="2" fill="#060606" />
<rect x="26" y="90" width="2" height="2" fill="#060606" />
<rect x="28" y="90" width="2" height="2" fill="#0B0B0B" />
<rect x="30" y="90" width="2" height="2" fill="#0B0B0B" />
<rect x="32" y="90" width="2" height="2" fill="#060606" />
<rect x="34" y="90" width="2" height="2" fill="#060606" />
<rect x="36" y="90" width="2" height="2" fill="#060606" />
<rect x="38" y="90" width="2" height="2" fill="#060606" />
<rect x="40" y="90" width="2" height="2" fill="#060606" />
<rect x="42" y="90" width="2" height="2" fill="#060606" />
<rect x="44" y="90" width="2" height="2" fill="#060606" />
<rect x="46" y="90" width="2" height="2" fill="#060606" />
<rect x="48" y="90" width="2" height="2" fill="#060606" />
<rect x="28" y="92" width="2" height="2" fill="#0B0B0B" />
<rect x="30" y="92" width="2" height="2" fill="#0B0B0B" />
<rect x="32" y="92" width="2" height="2" fill="#060606" />
<rect x="34" y="92" width="2" height="2" fill="#060606" />
<rect x="36" y="92" width="2" height="2" fill="#060606" />
<rect x="38" y="92" width="2" height="2" fill="#060606" />
<rect x="40" y="92" width="2" height="2" fill="#060606" />
<rect x="42" y="92" width="2" height="2" fill="#060606" />
<rect x="44" y="92" width="2" height="2" fill="#060606" />
<rect x="46" y="92" width="2" height="2" fill="#060606" />
<rect x="48" y="92" width="2" height="2" fill="#060606" />
<rect x="50" y="92" width="2" height="2" fill="#060606" />
<rect x="30" y="94" width="2" height="2" fill="#0B0B0B" />
<rect x="32" y="94" width="2" height="2" fill="#0B0B0B" />
<rect x="34" y="94" width="2" height="2" fill="#0B0B0B" />
<rect x="36" y="94" width="2" height="2" fill="#060606" />
<rect x="38" y="94" width="2" height="2" fill="#060606" />
<rect x="40" y="94" width="2" height="2" fill="#060606" />
<rect x="42" y="94" width="2" height="2" fill="#060606" />
<rect x="44" y="94" width="2" height="2" fill="#060606" />
<rect x="46" y="94" width="2" height="2" fill="#060606" />
<rect x="48" y="94" width="2" height="2" fill="#060606" />
<rect x="50" y="94" width="2" height="2" fill="#060606" />
<rect x="32" y="96" width="2" height="2" fill="#0B0B0B" />
<rect x="34" y="96" width="2" height="2" fill="#0B0B0B" />
<rect x="36" y="96" width="2" height="2" fill="#060606" />
<rect x="38" y="96" width="2" height="2" fill="#060606" />
<rect x="40" y="96" width="2" height="2" fill="#060606" />
<rect x="42" y="96" width="2" height="2" fill="#060606" />
<rect x="44" y="96" width="2" height="2" fill="#060606" />
<rect x="46" y="96" width="2" height="2" fill="#060606" />
<rect x="48" y="96" width="2" height="2" fill="#060606" />
<rect x="50" y="96" width="2" height="2" fill="#060606" />
<rect x="32" y="98" width="2" height="2" fill="#0B0B0B" />
<rect x="34" y="98" width="2" height="2" fill="#0B0B0B" />
<rect x="36" y="98" width="2" height="2" fill="#0B0B0B" />
<rect x="38" y="98" width="2" height="2" fill="#0B0B0B" />
<rect x="40" y="98" width="2" height="2" fill="#060606" />
<rect x="42" y="98" width="2" height="2" fill="#060606" />
<rect x="44" y="98" width="2" height="2" fill="#060606" />
<rect x="46" y="98" width="2" height="2" fill="#060606" />
<rect x="48" y="98" width="2" height="2" fill="#060606" />
<rect x="50" y="98" width="2" height="2" fill="#060606" />
<rect x="52" y="98" width="2" height="2" fill="#060606" />
<rect x="54" y="98" width="2" height="2" fill="#060606" />
<rect x="36" y="100" width="2" height="2" fill="#0B0B0B" />
<rect x="38" y="100" width="2" height="2" fill="#0B0B0B" />
<rect x="40" y="100" width="2" height="2" fill="#0B0B0B" />
<rect x="42" y="100" width="2" height="2" fill="#060606" />
<rect x="44" y="100" width="2" height="2" fill="#060606" />
<rect x="46" y="100" width="2" height="2" fill="#060606" />
<rect x="48" y="100" width="2" height="2" fill="#060606" />
<rect x="50" y="100" width="2" height="2" fill="#060606" />
<rect x="52" y="100" width="2" height="2" fill="#060606" />
<rect x="54" y="100" width="2" height="2" fill="#060606" />
<rect x="38" y="102" width="2" height="2" fill="#0B0B0B" />
<rect x="40" y="102" width="2" height="2" fill="#0B0B0B" />
<rect x="42" y="102" width="2" height="2" fill="#060606" />
<rect x="44" y="102" width="2" height="2" fill="#060606" />
<rect x="46" y="102" width="2" height="2" fill="#060606" />
<rect x="48" y="102" width="2" height="2" fill="#060606" />
<rect x="50" y="102" width="2" height="2" fill="#060606" />
<rect x="52" y="102" width="2" height="2" fill="#060606" />
<rect x="54" y="102" width="2" height="2" fill="#060606" />
<rect x="56" y="102" width="2" height="2" fill="#060606" />
<rect x="40" y="104" width="2" height="2" fill="#0B0B0B" />
<rect x="42" y="104" width="2" height="2" fill="#0B0B0B" />
<rect x="44" y="104" width="2" height="2" fill="#060606" />
<rect x="46" y="104" width="2" height="2" fill="#0B0B0B" />
<rect x="48" y="104" width="2" height="2" fill="#060606" />
<rect x="50" y="104" width="2" height="2" fill="#060606" />
<rect x="52" y="104" width="2" height="2" fill="#060606" />
<rect x="54" y="104" width="2" height="2" fill="#060606" />
<rect x="56" y="104" width="2" height="2" fill="#060606" />
<rect x="58" y="104" width="2" height="2" fill="#060606" />
<rect x="60" y="104" width="2" height="2" fill="#060606" />
<rect x="40" y="106" width="2" height="2" fill="#0B0B0B" />
<rect x="42" y="106" width="2" height="2" fill="#0B0B0B" />
<rect x="44" y="106" width="2" height="2" fill="#0B0B0B" />
<rect x="46" y="106" width="2" height="2" fill="#0B0B0B" />
<rect x="48" y="106" width="2" height="2" fill="#060606" />
<rect x="50" y="106" width="2" height="2" fill="#060606" />
<rect x="52" y="106" width="2" height="2" fill="#060606" />
<rect x="54" y="106" width="2" height="2" fill="#060606" />
<rect x="56" y="106" width="2" height="2" fill="#060606" />
<rect x="58" y="106" width="2" height="2" fill="#060606" />
<rect x="60" y="106" width="2" height="2" fill="#060606" />
<rect x="62" y="106" width="2" height="2" fill="#060606" />
<rect x="44" y="108" width="2" height="2" fill="#0B0B0B" />
<rect x="46" y="108" width="2" height="2" fill="#0B0B0B" />
<rect x="48" y="108" width="2" height="2" fill="#060606" />
<rect x="50" y="108" width="2" height="2" fill="#060606" />
<rect x="52" y="108" width="2" height="2" fill="#060606" />
<rect x="54" y="108" width="2" height="2" fill="#060606" />
<rect x="56" y="108" width="2" height="2" fill="#060606" />
<rect x="58" y="108" width="2" height="2" fill="#060606" />
<rect x="60" y="108" width="2" height="2" fill="#060606" />
<rect x="62" y="108" width="2" height="2" fill="#060606" />
<rect x="46" y="110" width="2" height="2" fill="#0B0B0B" />
<rect x="48" y="110" width="2" height="2" fill="#060606" />
<rect x="50" y="110" width="2" height="2" fill="#060606" />
<rect x="52" y="110" width="2" height="2" fill="#060606" />
<rect x="54" y="110" width="2" height="2" fill="#060606" />
<rect x="56" y="110" width="2" height="2" fill="#060606" />
<rect x="58" y="110" width="2" height="2" fill="#060606" />
<rect x="60" y="110" width="2" height="2" fill="#060606" />
<rect x="62" y="110" width="2" height="2" fill="#060606" />
<rect x="48" y="112" width="2" height="2" fill="#0B0B0B" />
<rect x="50" y="112" width="2" height="2" fill="#060606" />
<rect x="52" y="112" width="2" height="2" fill="#060606" />
<rect x="54" y="112" width="2" height="2" fill="#060606" />
<rect x="56" y="112" width="2" height="2" fill="#060606" />
<rect x="58" y="112" width="2" height="2" fill="#060606" />
<rect x="60" y="112" width="2" height="2" fill="#060606" />
<rect x="62" y="112" width="2" height="2" fill="#060606" />
<rect x="48" y="114" width="2" height="2" fill="#0B0B0B" />
<rect x="50" y="114" width="2" height="2" fill="#060606" />
<rect x="52" y="114" width="2" height="2" fill="#060606" />
<rect x="54" y="114" width="2" height="2" fill="#060606" />
<rect x="56" y="114" width="2" height="2" fill="#060606" />
<rect x="58" y="114" width="2" height="2" fill="#060606" />
<rect x="60" y="114" width="2" height="2" fill="#060606" />
<rect x="62" y="114" width="2" height="2" fill="#060606" />
<rect x="50" y="116" width="2" height="2" fill="#060606" />
<rect x="52" y="116" width="2" height="2" fill="#060606" />
<rect x="54" y="116" width="2" height="2" fill="#060606" />
<rect x="56" y="116" width="2" height="2" fill="#060606" />
<rect x="58" y="116" width="2" height="2" fill="#060606" />
<rect x="60" y="116" width="2" height="2" fill="#060606" />
<rect x="62" y="116" width="2" height="2" fill="#060606" />
<rect x="54" y="118" width="2" height="2" fill="#060606" />
<rect x="56" y="118" width="2" height="2" fill="#060606" />
<rect x="58" y="118" width="2" height="2" fill="#060606" />
<rect x="60" y="118" width="2" height="2" fill="#060606" />
<rect x="62" y="118" width="2" height="2" fill="#060606" />
<rect x="54" y="120" width="2" height="2" fill="#060606" />
<rect x="56" y="120" width="2" height="2" fill="#060606" />
<rect x="58" y="120" width="2" height="2" fill="#060606" />
<rect x="60" y="120" width="2" height="2" fill="#060606" />
<rect x="62" y="120" width="2" height="2" fill="#060606" />
<rect x="56" y="122" width="2" height="2" fill="#060606" />
<rect x="58" y="122" width="2" height="2" fill="#060606" />
<rect x="60" y="122" width="2" height="2" fill="#060606" />
<rect x="62" y="122" width="2" height="2" fill="#060606" />
<rect x="56" y="124" width="2" height="2" fill="#060606" />
<rect x="58" y="124" width="2" height="2" fill="#060606" />
<rect x="60" y="124" width="2" height="2" fill="#060606" />
<rect x="62" y="124" width="2" height="2" fill="#060606" />
<rect x="62" y="126" width="2" height="2" fill="#060606" />
</svg>