<?xml version="1.0" encoding="UTF-8" ?>
<svg version="1.1" width="64" height="64" xmlns="http://www.w3.org/2000/svg" shape-rendering="crispEdges">
<rect x="54" y="8" width="2" height="2" fill="#060606" />
<rect x="8" y="10" width="2" height="2" fill="#0B0B0B" />
<rect x="48" y="12" width="2" height="2" fill="#060606" />
<rect x="50" y="12" width="2" height="2" fill="#060606" />
<rect x="20" y="14" width="2" height="2" fill="#060606" />
<rect x="50" y="14" width="2" height="2" fill="#060606" />
<rect x="50" y="16" width="2" height="2" fill="#010101" />
<rect x="56" y="16" width="2" height="2" fill="#060606" />
<rect x="54" y="18" width="2" height="2" fill="#060606" />
<rect x="22" y="20" width="2" height="2" fill="#060606" />
<rect x="54" y="20" width="2" height="2" fill="#010101" />
<rect x="60" y="20" width="2" height="2" fill="#010101" />
<rect x="62" y="26" width="2" height="2" fill="#969696" />
<rect x="48" y="36" width="2" height="2" fill="#060606" />
<rect x="2" y="44" width="2" height="2" fill="#0B0B0B" />
<rect x="4" y="44" width="2" height="2" fill="#060606" />
<rect x="4" y="46" width="2" height="2" fill="#060606" />
<rect x="56" y="46" width="2" height="2" fill="#010101" />
<rect x="10" y="48" width="2" height="2" fill="#060606" />
<rect x="56" y="48" width="2" height="2" fill="#010101" />
<rect x="2" y="50" width="2" height="2" fill="#0B0B0B" />
<rect x="48" y="50" width="2" height="2" fill="#010101" />
<rect x="52" y="50" width="2" height="2" fill="#010101" />
<rect x="52" y="52" width="2" height="2" fill="#010101" />
<rect x="8" y="54" width="2" height="2" fill="#0B0B0B" />
<rect x="12" y="54" width="2" height="2" fill="#060606" />
<rect x="8" y="58" width="2" height="2" fill="#0B0B0B" />
<rect x="14" y="60" width="2" height="2" fill="#060606" />
<rect x="48" y="60" width="2" height="2" fill="#060606" />
<rect x="6" y="62" width="2" height="2" fill="#060606" />
<rect x="14" y="62" width="2" height="2" fill="#060606" />
</svg>