<?xml version="1.0" encoding="UTF-8" ?>
<svg version="1.1" width="64" height="64" xmlns="http://www.w3.org/2000/svg" shape-rendering="crispEdges">
<rect x="28" y="28" width="2" height="2" fill="#0B0B0B" />
<rect x="30" y="28" width="2" height="2" fill="#0B0B0B" />
<rect x="32" y="28" width="2" height="2" fill="#0B0B0B" />
<rect x="34" y="28" width="2" height="2" fill="#0B0B0B" />
<rect x="26" y="30" width="2" height="2" fill="#0B0B0B" />
<rect x="28" y="30" width="2" height="2" fill="#0B0B0B" />
<rect x="30" y="30" width="2" height="2" fill="#060606" />
<rect x="32" y="30" width="2" height="2" fill="#060606" />
<rect x="34" y="30" width="2" height="2" fill="#060606" />
<rect x="36" y="30" width="2" height="2" fill="#060606" />
<rect x="24" y="32" width="2" height="2" fill="#0B0B0B" />
<rect x="26" y="32" width="2" height="2" fill="#0B0B0B" />
<rect x="28" y="32" width="2" height="2" fill="#060606" />
<rect x="30" y="32" width="2" height="2" fill="#9B9B9B" />
<rect x="32" y="32" width="2" height="2" fill="#9B9B9B" />
<rect x="34" y="32" width="2" height="2" fill="#060606" />
<rect x="36" y="32" width="2" height="2" fill="#060606" />
<rect x="38" y="32" width="2" height="2" fill="#060606" />
<rect x="24" y="34" width="2" height="2" fill="#060606" />
<rect x="26" y="34" width="2" height="2" fill="#060606" />
<rect x="28" y="34" width="2" height="2" fill="#9B9B9B" />
<rect x="30" y="34" width="2" height="2" fill="#969696" />
<rect x="32" y="34" width="2" height="2" fill="#969696" />
<rect x="34" y="34" width="2" height="2" fill="#969696" />
<rect x="36" y="34" width="2" height="2" fill="#060606" />
<rect x="38" y="34" width="2" height="2" fill="#060606" />
<rect x="24" y="36" width="2" height="2" fill="#060606" />
<rect x="26" y="36" width="2" height="2" fill="#060606" />
<rect x="28" y="36" width="2" height="2" fill="#969696" />
<rect x="30" y="36" width="2" height="2" fill="#969696" />
<rect x="32" y="36" width="2" height="2" fill="#969696" />
<rect x="34" y="36" width="2" height="2" fill="#919191" />
<rect x="36" y="36" width="2" height="2" fill="#060606" />
<rect x="38" y="36" width="2" height="2" fill="#060606" />
<rect x="24" y="38" width="2" height="2" fill="#060606" />
<rect x="26" y="38" width="2" height="2" fill="#060606" />
<rect x="28" y="38" width="2" height="2" fill="#060606" />
<rect x="30" y="38" width="2" height="2" fill="#919191" />
<rect x="32" y="38" width="2" height="2" fill="#919191" />
<rect x="34" y="38" width="2" height="2" fill="#060606" />
<rect x="36" y="38" width="2" height="2" fill="#010101" />
<rect x="38" y="38" width="2" height="2" fill="#010101" />
<rect x="26" y="40" width="2" height="2" fill="#060606" />
<rect x="28" y="40" width="2" height="2" fill="#060606" />
<rect x="30" y="40" width="2" height="2" fill="#060606" />
<rect x="32" y="40" width="2" height="2" fill="#060606" />
<rect x="34" y="40" width="2" height="2" fill="#010101" />
<rect x="36" y="40" width="2" height="2" fill="#010101" />
<rect x="28" y="42" width="2" height="2" fill="#010101" />
<rect x="30" y="42" width="2" height="2" fill="#010101" />
<rect x="32" y="42" width="2" height="2" fill="#010101" />
<rect x="34" y="42" width="2" height="2" fill="#010101" />
</svg>