<?xml version="1.0" encoding="UTF-8" ?>
<svg version="1.1" width="128" height="128" xmlns="http://www.w3.org/2000/svg" shape-rendering="crispEdges">
<rect x="34" y="24" width="2" height="2" fill="#222034" />
<rect x="36" y="24" width="2" height="2" fill="#3B375B" />
<rect x="38" y="24" width="2" height="2" fill="#3B375B" />
<rect x="40" y="24" width="2" height="2" fill="#3B375B" />
<rect x="36" y="26" width="2" height="2" fill="#222034" />
<rect x="38" y="26" width="2" height="2" fill="#222034" />
<rect x="40" y="26" width="2" height="2" fill="#3B375B" />
<rect x="42" y="26" width="2" height="2" fill="#3B375B" />
<rect x="44" y="26" width="2" height="2" fill="#3B375B" />
<rect x="38" y="28" width="2" height="2" fill="#222034" />
<rect x="40" y="28" width="2" height="2" fill="#222034" />
<rect x="42" y="28" width="2" height="2" fill="#222034" />
<rect x="44" y="28" width="2" height="2" fill="#3B375B" />
<rect x="46" y="28" width="2" height="2" fill="#3B375B" />
<rect x="38" y="30" width="2" height="2" fill="#222034" />
<rect x="40" y="30" width="2" height="2" fill="#222034" />
<rect x="42" y="30" width="2" height="2" fill="#222034" />
<rect x="44" y="30" width="2" height="2" fill="#222034" />
<rect x="46" y="30" width="2" height="2" fill="#3B375B" />
<rect x="48" y="30" width="2" height="2" fill="#3B375B" />
<rect x="40" y="32" width="2" height="2" fill="#222034" />
<rect x="42" y="32" width="2" height="2" fill="#222034" />
<rect x="44" y="32" width="2" height="2" fill="#222034" />
<rect x="46" y="32" width="2" height="2" fill="#222034" />
<rect x="48" y="32" width="2" height="2" fill="#222034" />
<rect x="50" y="32" width="2" height="2" fill="#222034" />
<rect x="40" y="34" width="2" height="2" fill="#222034" />
<rect x="42" y="34" width="2" height="2" fill="#222034" />
<rect x="44" y="34" width="2" height="2" fill="#222034" />
<rect x="46" y="34" width="2" height="2" fill="#222034" />
<rect x="48" y="34" width="2" height="2" fill="#222034" />
<rect x="50" y="34" width="2" height="2" fill="#222034" />
<rect x="52" y="34" width="2" height="2" fill="#222034" />
<rect x="54" y="34" width="2" height="2" fill="#222034" />
<rect x="56" y="34" width="2" height="2" fill="#222034" />
<rect x="40" y="36" width="2" height="2" fill="#222034" />
<rect x="42" y="36" width="2" height="2" fill="#222034" />
<rect x="44" y="36" width="2" height="2" fill="#222034" />
<rect x="46" y="36" width="2" height="2" fill="#222034" />
<rect x="48" y="36" width="2" height="2" fill="#222034" />
<rect x="50" y="36" width="2" height="2" fill="#222034" />
<rect x="52" y="36" width="2" height="2" fill="#222034" />
<rect x="54" y="36" width="2" height="2" fill="#222034" />
<rect x="56" y="36" width="2" height="2" fill="#222034" />
<rect x="58" y="36" width="2" height="2" fill="#222034" />
<rect x="40" y="38" width="2" height="2" fill="#222034" />
<rect x="42" y="38" width="2" height="2" fill="#222034" />
<rect x="44" y="38" width="2" height="2" fill="#222034" />
<rect x="46" y="38" width="2" height="2" fill="#222034" />
<rect x="48" y="38" width="2" height="2" fill="#3B375B" />
<rect x="50" y="38" width="2" height="2" fill="#222034" />
<rect x="52" y="38" width="2" height="2" fill="#222034" />
<rect x="54" y="38" width="2" height="2" fill="#222034" />
<rect x="56" y="38" width="2" height="2" fill="#222034" />
<rect x="58" y="38" width="2" height="2" fill="#222034" />
<rect x="42" y="40" width="2" height="2" fill="#222034" />
<rect x="44" y="40" width="2" height="2" fill="#222034" />
<rect x="46" y="40" width="2" height="2" fill="#222034" />
<rect x="48" y="40" width="2" height="2" fill="#222034" />
<rect x="50" y="40" width="2" height="2" fill="#3B375B" />
<rect x="52" y="40" width="2" height="2" fill="#222034" />
<rect x="54" y="40" width="2" height="2" fill="#222034" />
<rect x="56" y="40" width="2" height="2" fill="#222034" />
<rect x="58" y="40" width="2" height="2" fill="#222034" />
<rect x="60" y="40" width="2" height="2" fill="#222034" />
<rect x="62" y="40" width="2" height="2" fill="#222034" />
<rect x="64" y="40" width="2" height="2" fill="#222034" />
<rect x="42" y="42" width="2" height="2" fill="#222034" />
<rect x="44" y="42" width="2" height="2" fill="#222034" />
<rect x="46" y="42" width="2" height="2" fill="#222034" />
<rect x="48" y="42" width="2" height="2" fill="#222034" />
<rect x="50" y="42" width="2" height="2" fill="#3B375B" />
<rect x="52" y="42" width="2" height="2" fill="#3B375B" />
<rect x="54" y="42" width="2" height="2" fill="#222034" />
<rect x="56" y="42" width="2" height="2" fill="#222034" />
<rect x="58" y="42" width="2" height="2" fill="#222034" />
<rect x="60" y="42" width="2" height="2" fill="#222034" />
<rect x="62" y="42" width="2" height="2" fill="#222034" />
<rect x="64" y="42" width="2" height="2" fill="#222034" />
<rect x="66" y="42" width="2" height="2" fill="#222034" />
<rect x="44" y="44" width="2" height="2" fill="#222034" />
<rect x="46" y="44" width="2" height="2" fill="#222034" />
<rect x="48" y="44" width="2" height="2" fill="#222034" />
<rect x="50" y="44" width="2" height="2" fill="#222034" />
<rect x="52" y="44" width="2" height="2" fill="#222034" />
<rect x="54" y="44" width="2" height="2" fill="#3B375B" />
<rect x="56" y="44" width="2" height="2" fill="#222034" />
<rect x="58" y="44" width="2" height="2" fill="#222034" />
<rect x="60" y="44" width="2" height="2" fill="#3B375B" />
<rect x="62" y="44" width="2" height="2" fill="#222034" />
<rect x="64" y="44" width="2" height="2" fill="#222034" />
<rect x="66" y="44" width="2" height="2" fill="#222034" />
<rect x="68" y="44" width="2" height="2" fill="#222034" />
<rect x="42" y="46" width="2" height="2" fill="#222034" />
<rect x="44" y="46" width="2" height="2" fill="#222034" />
<rect x="46" y="46" width="2" height="2" fill="#222034" />
<rect x="48" y="46" width="2" height="2" fill="#222034" />
<rect x="50" y="46" width="2" height="2" fill="#222034" />
<rect x="52" y="46" width="2" height="2" fill="#222034" />
<rect x="54" y="46" width="2" height="2" fill="#3B375B" />
<rect x="56" y="46" width="2" height="2" fill="#3B375B" />
<rect x="58" y="46" width="2" height="2" fill="#222034" />
<rect x="60" y="46" width="2" height="2" fill="#222034" />
<rect x="62" y="46" width="2" height="2" fill="#3B375B" />
<rect x="64" y="46" width="2" height="2" fill="#3B375B" />
<rect x="66" y="46" width="2" height="2" fill="#222034" />
<rect x="68" y="46" width="2" height="2" fill="#222034" />
<rect x="70" y="46" width="2" height="2" fill="#222034" />
<rect x="72" y="46" width="2" height="2" fill="#222034" />
<rect x="42" y="48" width="2" height="2" fill="#222034" />
<rect x="44" y="48" width="2" height="2" fill="#222034" />
<rect x="46" y="48" width="2" height="2" fill="#222034" />
<rect x="48" y="48" width="2" height="2" fill="#3B375B" />
<rect x="50" y="48" width="2" height="2" fill="#222034" />
<rect x="52" y="48" width="2" height="2" fill="#222034" />
<rect x="54" y="48" width="2" height="2" fill="#222034" />
<rect x="56" y="48" width="2" height="2" fill="#3B375B" />
<rect x="58" y="48" width="2" height="2" fill="#222034" />
<rect x="60" y="48" width="2" height="2" fill="#222034" />
<rect x="62" y="48" width="2" height="2" fill="#222034" />
<rect x="64" y="48" width="2" height="2" fill="#3B375B" />
<rect x="66" y="48" width="2" height="2" fill="#3B375B" />
<rect x="68" y="48" width="2" height="2" fill="#3B375B" />
<rect x="70" y="48" width="2" height="2" fill="#222034" />
<rect x="72" y="48" width="2" height="2" fill="#222034" />
<rect x="74" y="48" width="2" height="2" fill="#222034" />
<rect x="76" y="48" width="2" height="2" fill="#222034" />
<rect x="78" y="48" width="2" height="2" fill="#222034" />
<rect x="80" y="48" width="2" height="2" fill="#222034" />
<rect x="40" y="50" width="2" height="2" fill="#222034" />
<rect x="42" y="50" width="2" height="2" fill="#222034" />
<rect x="44" y="50" width="2" height="2" fill="#222034" />
<rect x="46" y="50" width="2" height="2" fill="#3B375B" />
<rect x="48" y="50" width="2" height="2" fill="#3B375B" />
<rect x="50" y="50" width="2" height="2" fill="#222034" />
<rect x="52" y="50" width="2" height="2" fill="#222034" />
<rect x="54" y="50" width="2" height="2" fill="#222034" />
<rect x="56" y="50" width="2" height="2" fill="#3B375B" />
<rect x="58" y="50" width="2" height="2" fill="#222034" />
<rect x="60" y="50" width="2" height="2" fill="#222034" />
<rect x="62" y="50" width="2" height="2" fill="#222034" />
<rect x="64" y="50" width="2" height="2" fill="#222034" />
<rect x="66" y="50" width="2" height="2" fill="#222034" />
<rect x="68" y="50" width="2" height="2" fill="#3B375B" />
<rect x="70" y="50" width="2" height="2" fill="#3B375B" />
<rect x="72" y="50" width="2" height="2" fill="#3B375B" />
<rect x="74" y="50" width="2" height="2" fill="#222034" />
<rect x="76" y="50" width="2" height="2" fill="#222034" />
<rect x="78" y="50" width="2" height="2" fill="#222034" />
<rect x="80" y="50" width="2" height="2" fill="#222034" />
<rect x="38" y="52" width="2" height="2" fill="#222034" />
<rect x="40" y="52" width="2" height="2" fill="#222034" />
<rect x="42" y="52" width="2" height="2" fill="#222034" />
<rect x="44" y="52" width="2" height="2" fill="#222034" />
<rect x="46" y="52" width="2" height="2" fill="#3B375B" />
<rect x="48" y="52" width="2" height="2" fill="#222034" />
<rect x="50" y="52" width="2" height="2" fill="#222034" />
<rect x="52" y="52" width="2" height="2" fill="#222034" />
<rect x="54" y="52" width="2" height="2" fill="#222034" />
<rect x="56" y="52" width="2" height="2" fill="#3B375B" />
<rect x="58" y="52" width="2" height="2" fill="#222034" />
<rect x="60" y="52" width="2" height="2" fill="#222034" />
<rect x="62" y="52" width="2" height="2" fill="#222034" />
<rect x="64" y="52" width="2" height="2" fill="#222034" />
<rect x="66" y="52" width="2" height="2" fill="#222034" />
<rect x="68" y="52" width="2" height="2" fill="#222034" />
<rect x="70" y="52" width="2" height="2" fill="#222034" />
<rect x="72" y="52" width="2" height="2" fill="#3B375B" />
<rect x="74" y="52" width="2" height="2" fill="#3B375B" />
<rect x="76" y="52" width="2" height="2" fill="#222034" />
<rect x="78" y="52" width="2" height="2" fill="#222034" />
<rect x="80" y="52" width="2" height="2" fill="#222034" />
<rect x="82" y="52" width="2" height="2" fill="#222034" />
<rect x="84" y="52" width="2" height="2" fill="#222034" />
<rect x="34" y="54" width="2" height="2" fill="#222034" />
<rect x="36" y="54" width="2" height="2" fill="#222034" />
<rect x="38" y="54" width="2" height="2" fill="#222034" />
<rect x="40" y="54" width="2" height="2" fill="#222034" />
<rect x="42" y="54" width="2" height="2" fill="#222034" />
<rect x="44" y="54" width="2" height="2" fill="#222034" />
<rect x="46" y="54" width="2" height="2" fill="#3B375B" />
<rect x="48" y="54" width="2" height="2" fill="#222034" />
<rect x="50" y="54" width="2" height="2" fill="#222034" />
<rect x="52" y="54" width="2" height="2" fill="#222034" />
<rect x="54" y="54" width="2" height="2" fill="#222034" />
<rect x="56" y="54" width="2" height="2" fill="#222034" />
<rect x="58" y="54" width="2" height="2" fill="#222034" />
<rect x="60" y="54" width="2" height="2" fill="#222034" />
<rect x="62" y="54" width="2" height="2" fill="#222034" />
<rect x="64" y="54" width="2" height="2" fill="#222034" />
<rect x="66" y="54" width="2" height="2" fill="#222034" />
<rect x="68" y="54" width="2" height="2" fill="#222034" />
<rect x="70" y="54" width="2" height="2" fill="#222034" />
<rect x="72" y="54" width="2" height="2" fill="#222034" />
<rect x="74" y="54" width="2" height="2" fill="#222034" />
<rect x="76" y="54" width="2" height="2" fill="#222034" />
<rect x="78" y="54" width="2" height="2" fill="#222034" />
<rect x="80" y="54" width="2" height="2" fill="#222034" />
<rect x="82" y="54" width="2" height="2" fill="#222034" />
<rect x="84" y="54" width="2" height="2" fill="#222034" />
<rect x="86" y="54" width="2" height="2" fill="#222034" />
<rect x="88" y="54" width="2" height="2" fill="#222034" />
<rect x="90" y="54" width="2" height="2" fill="#222034" />
<rect x="32" y="56" width="2" height="2" fill="#222034" />
<rect x="34" y="56" width="2" height="2" fill="#222034" />
<rect x="36" y="56" width="2" height="2" fill="#222034" />
<rect x="38" y="56" width="2" height="2" fill="#222034" />
<rect x="40" y="56" width="2" height="2" fill="#222034" />
<rect x="42" y="56" width="2" height="2" fill="#222034" />
<rect x="44" y="56" width="2" height="2" fill="#3B375B" />
<rect x="46" y="56" width="2" height="2" fill="#3B375B" />
<rect x="48" y="56" width="2" height="2" fill="#222034" />
<rect x="50" y="56" width="2" height="2" fill="#222034" />
<rect x="52" y="56" width="2" height="2" fill="#222034" />
<rect x="54" y="56" width="2" height="2" fill="#222034" />
<rect x="56" y="56" width="2" height="2" fill="#222034" />
<rect x="58" y="56" width="2" height="2" fill="#222034" />
<rect x="60" y="56" width="2" height="2" fill="#222034" />
<rect x="62" y="56" width="2" height="2" fill="#222034" />
<rect x="64" y="56" width="2" height="2" fill="#222034" />
<rect x="66" y="56" width="2" height="2" fill="#222034" />
<rect x="68" y="56" width="2" height="2" fill="#222034" />
<rect x="70" y="56" width="2" height="2" fill="#222034" />
<rect x="72" y="56" width="2" height="2" fill="#222034" />
<rect x="74" y="56" width="2" height="2" fill="#222034" />
<rect x="76" y="56" width="2" height="2" fill="#222034" />
<rect x="78" y="56" width="2" height="2" fill="#222034" />
<rect x="80" y="56" width="2" height="2" fill="#222034" />
<rect x="82" y="56" width="2" height="2" fill="#222034" />
<rect x="84" y="56" width="2" height="2" fill="#222034" />
<rect x="86" y="56" width="2" height="2" fill="#222034" />
<rect x="88" y="56" width="2" height="2" fill="#222034" />
<rect x="90" y="56" width="2" height="2" fill="#222034" />
<rect x="30" y="58" width="2" height="2" fill="#222034" />
<rect x="32" y="58" width="2" height="2" fill="#222034" />
<rect x="34" y="58" width="2" height="2" fill="#222034" />
<rect x="36" y="58" width="2" height="2" fill="#222034" />
<rect x="38" y="58" width="2" height="2" fill="#222034" />
<rect x="40" y="58" width="2" height="2" fill="#222034" />
<rect x="42" y="58" width="2" height="2" fill="#222034" />
<rect x="44" y="58" width="2" height="2" fill="#222034" />
<rect x="46" y="58" width="2" height="2" fill="#222034" />
<rect x="48" y="58" width="2" height="2" fill="#222034" />
<rect x="50" y="58" width="2" height="2" fill="#222034" />
<rect x="52" y="58" width="2" height="2" fill="#222034" />
<rect x="54" y="58" width="2" height="2" fill="#222034" />
<rect x="56" y="58" width="2" height="2" fill="#222034" />
<rect x="58" y="58" width="2" height="2" fill="#222034" />
<rect x="60" y="58" width="2" height="2" fill="#222034" />
<rect x="62" y="58" width="2" height="2" fill="#222034" />
<rect x="64" y="58" width="2" height="2" fill="#222034" />
<rect x="66" y="58" width="2" height="2" fill="#222034" />
<rect x="68" y="58" width="2" height="2" fill="#222034" />
<rect x="70" y="58" width="2" height="2" fill="#222034" />
<rect x="72" y="58" width="2" height="2" fill="#222034" />
<rect x="74" y="58" width="2" height="2" fill="#222034" />
<rect x="76" y="58" width="2" height="2" fill="#222034" />
<rect x="78" y="58" width="2" height="2" fill="#3B375B" />
<rect x="80" y="58" width="2" height="2" fill="#3B375B" />
<rect x="82" y="58" width="2" height="2" fill="#3B375B" />
<rect x="84" y="58" width="2" height="2" fill="#3B375B" />
<rect x="86" y="58" width="2" height="2" fill="#3B375B" />
<rect x="88" y="58" width="2" height="2" fill="#222034" />
<rect x="32" y="60" width="2" height="2" fill="#222034" />
<rect x="34" y="60" width="2" height="2" fill="#222034" />
<rect x="36" y="60" width="2" height="2" fill="#222034" />
<rect x="38" y="60" width="2" height="2" fill="#222034" />
<rect x="40" y="60" width="2" height="2" fill="#222034" />
<rect x="42" y="60" width="2" height="2" fill="#222034" />
<rect x="44" y="60" width="2" height="2" fill="#222034" />
<rect x="46" y="60" width="2" height="2" fill="#222034" />
<rect x="48" y="60" width="2" height="2" fill="#222034" />
<rect x="50" y="60" width="2" height="2" fill="#222034" />
<rect x="52" y="60" width="2" height="2" fill="#3B375B" />
<rect x="54" y="60" width="2" height="2" fill="#3B375B" />
<rect x="56" y="60" width="2" height="2" fill="#3B375B" />
<rect x="58" y="60" width="2" height="2" fill="#222034" />
<rect x="60" y="60" width="2" height="2" fill="#222034" />
<rect x="62" y="60" width="2" height="2" fill="#3B375B" />
<rect x="64" y="60" width="2" height="2" fill="#3B375B" />
<rect x="66" y="60" width="2" height="2" fill="#222034" />
<rect x="68" y="60" width="2" height="2" fill="#222034" />
<rect x="70" y="60" width="2" height="2" fill="#3B375B" />
<rect x="72" y="60" width="2" height="2" fill="#3B375B" />
<rect x="74" y="60" width="2" height="2" fill="#3B375B" />
<rect x="76" y="60" width="2" height="2" fill="#3B375B" />
<rect x="78" y="60" width="2" height="2" fill="#3B375B" />
<rect x="80" y="60" width="2" height="2" fill="#222034" />
<rect x="34" y="62" width="2" height="2" fill="#222034" />
<rect x="36" y="62" width="2" height="2" fill="#222034" />
<rect x="38" y="62" width="2" height="2" fill="#222034" />
<rect x="40" y="62" width="2" height="2" fill="#222034" />
<rect x="42" y="62" width="2" height="2" fill="#222034" />
<rect x="44" y="62" width="2" height="2" fill="#3B375B" />
<rect x="46" y="62" width="2" height="2" fill="#3B375B" />
<rect x="48" y="62" width="2" height="2" fill="#3B375B" />
<rect x="50" y="62" width="2" height="2" fill="#3B375B" />
<rect x="52" y="62" width="2" height="2" fill="#3B375B" />
<rect x="54" y="62" width="2" height="2" fill="#222034" />
<rect x="56" y="62" width="2" height="2" fill="#222034" />
<rect x="58" y="62" width="2" height="2" fill="#222034" />
<rect x="60" y="62" width="2" height="2" fill="#222034" />
<rect x="62" y="62" width="2" height="2" fill="#222034" />
<rect x="64" y="62" width="2" height="2" fill="#222034" />
<rect x="66" y="62" width="2" height="2" fill="#222034" />
<rect x="68" y="62" width="2" height="2" fill="#222034" />
<rect x="70" y="62" width="2" height="2" fill="#222034" />
<rect x="72" y="62" width="2" height="2" fill="#222034" />
<rect x="74" y="62" width="2" height="2" fill="#222034" />
<rect x="76" y="62" width="2" height="2" fill="#222034" />
<rect x="78" y="62" width="2" height="2" fill="#222034" />
<rect x="80" y="62" width="2" height="2" fill="#222034" />
<rect x="42" y="64" width="2" height="2" fill="#222034" />
<rect x="44" y="64" width="2" height="2" fill="#222034" />
<rect x="46" y="64" width="2" height="2" fill="#222034" />
<rect x="48" y="64" width="2" height="2" fill="#222034" />
<rect x="50" y="64" width="2" height="2" fill="#222034" />
<rect x="52" y="64" width="2" height="2" fill="#222034" />
<rect x="54" y="64" width="2" height="2" fill="#222034" />
<rect x="56" y="64" width="2" height="2" fill="#222034" />
<rect x="58" y="64" width="2" height="2" fill="#222034" />
<rect x="60" y="64" width="2" height="2" fill="#222034" />
<rect x="62" y="64" width="2" height="2" fill="#222034" />
<rect x="64" y="64" width="2" height="2" fill="#222034" />
<rect x="66" y="64" width="2" height="2" fill="#222034" />
<rect x="68" y="64" width="2" height="2" fill="#222034" />
<rect x="70" y="64" width="2" height="2" fill="#222034" />
<rect x="72" y="64" width="2" height="2" fill="#222034" />
<rect x="74" y="64" width="2" height="2" fill="#222034" />
<rect x="76" y="64" width="2" height="2" fill="#222034" />
<rect x="78" y="64" width="2" height="2" fill="#222034" />
<rect x="80" y="64" width="2" height="2" fill="#222034" />
<rect x="82" y="64" width="2" height="2" fill="#222034" />
<rect x="40" y="66" width="2" height="2" fill="#222034" />
<rect x="42" y="66" width="2" height="2" fill="#222034" />
<rect x="44" y="66" width="2" height="2" fill="#222034" />
<rect x="46" y="66" width="2" height="2" fill="#222034" />
<rect x="48" y="66" width="2" height="2" fill="#222034" />
<rect x="50" y="66" width="2" height="2" fill="#222034" />
<rect x="52" y="66" width="2" height="2" fill="#222034" />
<rect x="54" y="66" width="2" height="2" fill="#3B375B" />
<rect x="56" y="66" width="2" height="2" fill="#3B375B" />
<rect x="58" y="66" width="2" height="2" fill="#222034" />
<rect x="60" y="66" width="2" height="2" fill="#222034" />
<rect x="62" y="66" width="2" height="2" fill="#222034" />
<rect x="64" y="66" width="2" height="2" fill="#222034" />
<rect x="66" y="66" width="2" height="2" fill="#3B375B" />
<rect x="68" y="66" width="2" height="2" fill="#3B375B" />
<rect x="70" y="66" width="2" height="2" fill="#222034" />
<rect x="72" y="66" width="2" height="2" fill="#222034" />
<rect x="74" y="66" width="2" height="2" fill="#222034" />
<rect x="76" y="66" width="2" height="2" fill="#222034" />
<rect x="78" y="66" width="2" height="2" fill="#222034" />
<rect x="80" y="66" width="2" height="2" fill="#222034" />
<rect x="82" y="66" width="2" height="2" fill="#222034" />
<rect x="40" y="68" width="2" height="2" fill="#222034" />
<rect x="42" y="68" width="2" height="2" fill="#222034" />
<rect x="44" y="68" width="2" height="2" fill="#222034" />
<rect x="46" y="68" width="2" height="2" fill="#222034" />
<rect x="48" y="68" width="2" height="2" fill="#222034" />
<rect x="50" y="68" width="2" height="2" fill="#222034" />
<rect x="52" y="68" width="2" height="2" fill="#222034" />
<rect x="54" y="68" width="2" height="2" fill="#3B375B" />
<rect x="56" y="68" width="2" height="2" fill="#3B375B" />
<rect x="58" y="68" width="2" height="2" fill="#222034" />
<rect x="60" y="68" width="2" height="2" fill="#222034" />
<rect x="62" y="68" width="2" height="2" fill="#222034" />
<rect x="64" y="68" width="2" height="2" fill="#222034" />
<rect x="66" y="68" width="2" height="2" fill="#3B375B" />
<rect x="68" y="68" width="2" height="2" fill="#3B375B" />
<rect x="70" y="68" width="2" height="2" fill="#222034" />
<rect x="72" y="68" width="2" height="2" fill="#222034" />
<rect x="74" y="68" width="2" height="2" fill="#222034" />
<rect x="76" y="68" width="2" height="2" fill="#222034" />
<rect x="78" y="68" width="2" height="2" fill="#222034" />
<rect x="80" y="68" width="2" height="2" fill="#222034" />
<rect x="82" y="68" width="2" height="2" fill="#222034" />
<rect x="40" y="70" width="2" height="2" fill="#222034" />
<rect x="42" y="70" width="2" height="2" fill="#222034" />
<rect x="44" y="70" width="2" height="2" fill="#222034" />
<rect x="46" y="70" width="2" height="2" fill="#222034" />
<rect x="48" y="70" width="2" height="2" fill="#222034" />
<rect x="50" y="70" width="2" height="2" fill="#222034" />
<rect x="52" y="70" width="2" height="2" fill="#222034" />
<rect x="54" y="70" width="2" height="2" fill="#222034" />
<rect x="56" y="70" width="2" height="2" fill="#222034" />
<rect x="58" y="70" width="2" height="2" fill="#222034" />
<rect x="60" y="70" width="2" height="2" fill="#222034" />
<rect x="62" y="70" width="2" height="2" fill="#222034" />
<rect x="64" y="70" width="2" height="2" fill="#222034" />
<rect x="66" y="70" width="2" height="2" fill="#222034" />
<rect x="68" y="70" width="2" height="2" fill="#222034" />
<rect x="70" y="70" width="2" height="2" fill="#222034" />
<rect x="72" y="70" width="2" height="2" fill="#222034" />
<rect x="74" y="70" width="2" height="2" fill="#222034" />
<rect x="76" y="70" width="2" height="2" fill="#222034" />
<rect x="78" y="70" width="2" height="2" fill="#222034" />
<rect x="80" y="70" width="2" height="2" fill="#222034" />
<rect x="82" y="70" width="2" height="2" fill="#222034" />
<rect x="40" y="72" width="2" height="2" fill="#222034" />
<rect x="42" y="72" width="2" height="2" fill="#222034" />
<rect x="44" y="72" width="2" height="2" fill="#222034" />
<rect x="46" y="72" width="2" height="2" fill="#222034" />
<rect x="48" y="72" width="2" height="2" fill="#222034" />
<rect x="50" y="72" width="2" height="2" fill="#222034" />
<rect x="52" y="72" width="2" height="2" fill="#222034" />
<rect x="54" y="72" width="2" height="2" fill="#222034" />
<rect x="56" y="72" width="2" height="2" fill="#222034" />
<rect x="58" y="72" width="2" height="2" fill="#222034" />
<rect x="60" y="72" width="2" height="2" fill="#222034" />
<rect x="62" y="72" width="2" height="2" fill="#222034" />
<rect x="64" y="72" width="2" height="2" fill="#222034" />
<rect x="66" y="72" width="2" height="2" fill="#222034" />
<rect x="68" y="72" width="2" height="2" fill="#222034" />
<rect x="70" y="72" width="2" height="2" fill="#222034" />
<rect x="72" y="72" width="2" height="2" fill="#222034" />
<rect x="74" y="72" width="2" height="2" fill="#222034" />
<rect x="76" y="72" width="2" height="2" fill="#222034" />
<rect x="78" y="72" width="2" height="2" fill="#222034" />
<rect x="80" y="72" width="2" height="2" fill="#222034" />
<rect x="82" y="72" width="2" height="2" fill="#222034" />
<rect x="40" y="74" width="2" height="2" fill="#222034" />
<rect x="42" y="74" width="2" height="2" fill="#222034" />
<rect x="44" y="74" width="2" height="2" fill="#222034" />
<rect x="46" y="74" width="2" height="2" fill="#222034" />
<rect x="48" y="74" width="2" height="2" fill="#222034" />
<rect x="50" y="74" width="2" height="2" fill="#3B375B" />
<rect x="52" y="74" width="2" height="2" fill="#3B375B" />
<rect x="54" y="74" width="2" height="2" fill="#222034" />
<rect x="56" y="74" width="2" height="2" fill="#3B375B" />
<rect x="58" y="74" width="2" height="2" fill="#222034" />
<rect x="60" y="74" width="2" height="2" fill="#222034" />
<rect x="62" y="74" width="2" height="2" fill="#222034" />
<rect x="64" y="74" width="2" height="2" fill="#222034" />
<rect x="66" y="74" width="2" height="2" fill="#222034" />
<rect x="68" y="74" width="2" height="2" fill="#3B375B" />
<rect x="70" y="74" width="2" height="2" fill="#222034" />
<rect x="72" y="74" width="2" height="2" fill="#3B375B" />
<rect x="74" y="74" width="2" height="2" fill="#3B375B" />
<rect x="76" y="74" width="2" height="2" fill="#222034" />
<rect x="78" y="74" width="2" height="2" fill="#222034" />
<rect x="80" y="74" width="2" height="2" fill="#222034" />
<rect x="40" y="76" width="2" height="2" fill="#222034" />
<rect x="42" y="76" width="2" height="2" fill="#222034" />
<rect x="44" y="76" width="2" height="2" fill="#222034" />
<rect x="46" y="76" width="2" height="2" fill="#222034" />
<rect x="48" y="76" width="2" height="2" fill="#222034" />
<rect x="50" y="76" width="2" height="2" fill="#222034" />
<rect x="52" y="76" width="2" height="2" fill="#3B375B" />
<rect x="54" y="76" width="2" height="2" fill="#222034" />
<rect x="56" y="76" width="2" height="2" fill="#3B375B" />
<rect x="58" y="76" width="2" height="2" fill="#222034" />
<rect x="60" y="76" width="2" height="2" fill="#3B375B" />
<rect x="62" y="76" width="2" height="2" fill="#222034" />
<rect x="64" y="76" width="2" height="2" fill="#3B375B" />
<rect x="66" y="76" width="2" height="2" fill="#222034" />
<rect x="68" y="76" width="2" height="2" fill="#3B375B" />
<rect x="70" y="76" width="2" height="2" fill="#222034" />
<rect x="72" y="76" width="2" height="2" fill="#3B375B" />
<rect x="74" y="76" width="2" height="2" fill="#222034" />
<rect x="76" y="76" width="2" height="2" fill="#222034" />
<rect x="78" y="76" width="2" height="2" fill="#222034" />
<rect x="80" y="76" width="2" height="2" fill="#222034" />
<rect x="42" y="78" width="2" height="2" fill="#222034" />
<rect x="44" y="78" width="2" height="2" fill="#222034" />
<rect x="46" y="78" width="2" height="2" fill="#222034" />
<rect x="48" y="78" width="2" height="2" fill="#222034" />
<rect x="50" y="78" width="2" height="2" fill="#222034" />
<rect x="52" y="78" width="2" height="2" fill="#222034" />
<rect x="54" y="78" width="2" height="2" fill="#222034" />
<rect x="56" y="78" width="2" height="2" fill="#3B375B" />
<rect x="58" y="78" width="2" height="2" fill="#222034" />
<rect x="60" y="78" width="2" height="2" fill="#3B375B" />
<rect x="62" y="78" width="2" height="2" fill="#222034" />
<rect x="64" y="78" width="2" height="2" fill="#3B375B" />
<rect x="66" y="78" width="2" height="2" fill="#222034" />
<rect x="68" y="78" width="2" height="2" fill="#3B375B" />
<rect x="70" y="78" width="2" height="2" fill="#222034" />
<rect x="72" y="78" width="2" height="2" fill="#222034" />
<rect x="74" y="78" width="2" height="2" fill="#222034" />
<rect x="76" y="78" width="2" height="2" fill="#222034" />
<rect x="46" y="80" width="2" height="2" fill="#222034" />
<rect x="48" y="80" width="2" height="2" fill="#222034" />
<rect x="50" y="80" width="2" height="2" fill="#222034" />
<rect x="52" y="80" width="2" height="2" fill="#222034" />
<rect x="54" y="80" width="2" height="2" fill="#222034" />
<rect x="56" y="80" width="2" height="2" fill="#222034" />
<rect x="58" y="80" width="2" height="2" fill="#222034" />
<rect x="60" y="80" width="2" height="2" fill="#222034" />
<rect x="62" y="80" width="2" height="2" fill="#222034" />
<rect x="64" y="80" width="2" height="2" fill="#222034" />
<rect x="66" y="80" width="2" height="2" fill="#222034" />
<rect x="68" y="80" width="2" height="2" fill="#222034" />
<rect x="70" y="80" width="2" height="2" fill="#222034" />
<rect x="72" y="80" width="2" height="2" fill="#222034" />
<rect x="74" y="80" width="2" height="2" fill="#222034" />
<rect x="76" y="80" width="2" height="2" fill="#222034" />
<rect x="50" y="82" width="2" height="2" fill="#222034" />
<rect x="52" y="82" width="2" height="2" fill="#222034" />
<rect x="54" y="82" width="2" height="2" fill="#222034" />
<rect x="56" y="82" width="2" height="2" fill="#222034" />
<rect x="58" y="82" width="2" height="2" fill="#222034" />
<rect x="60" y="82" width="2" height="2" fill="#222034" />
<rect x="62" y="82" width="2" height="2" fill="#222034" />
<rect x="64" y="82" width="2" height="2" fill="#222034" />
<rect x="66" y="82" width="2" height="2" fill="#222034" />
<rect x="68" y="82" width="2" height="2" fill="#222034" />
<rect x="70" y="82" width="2" height="2" fill="#222034" />
<rect x="72" y="82" width="2" height="2" fill="#222034" />
<rect x="74" y="82" width="2" height="2" fill="#222034" />
<rect x="54" y="84" width="2" height="2" fill="#222034" />
<rect x="56" y="84" width="2" height="2" fill="#222034" />
<rect x="58" y="84" width="2" height="2" fill="#222034" />
<rect x="60" y="84" width="2" height="2" fill="#222034" />
<rect x="62" y="84" width="2" height="2" fill="#222034" />
<rect x="64" y="84" width="2" height="2" fill="#222034" />
<rect x="66" y="84" width="2" height="2" fill="#222034" />
<rect x="58" y="86" width="2" height="2" fill="#222034" />
<rect x="60" y="86" width="2" height="2" fill="#222034" />
<rect x="62" y="86" width="2" height="2" fill="#222034" />
<rect x="58" y="88" width="2" height="2" fill="#222034" />
<rect x="60" y="88" width="2" height="2" fill="#222034" />
<rect x="62" y="88" width="2" height="2" fill="#222034" />
<rect x="64" y="88" width="2" height="2" fill="#222034" />
<rect x="58" y="90" width="2" height="2" fill="#222034" />
<rect x="60" y="90" width="2" height="2" fill="#222034" />
<rect x="62" y="90" width="2" height="2" fill="#222034" />
<rect x="64" y="90" width="2" height="2" fill="#222034" />
<rect x="56" y="92" width="2" height="2" fill="#222034" />
<rect x="58" y="92" width="2" height="2" fill="#222034" />
<rect x="60" y="92" width="2" height="2" fill="#222034" />
<rect x="62" y="92" width="2" height="2" fill="#222034" />
<rect x="64" y="92" width="2" height="2" fill="#222034" />
<rect x="54" y="94" width="2" height="2" fill="#222034" />
<rect x="56" y="94" width="2" height="2" fill="#222034" />
<rect x="58" y="94" width="2" height="2" fill="#222034" />
<rect x="60" y="94" width="2" height="2" fill="#222034" />
<rect x="62" y="94" width="2" height="2" fill="#222034" />
<rect x="64" y="94" width="2" height="2" fill="#222034" />
<rect x="66" y="94" width="2" height="2" fill="#222034" />
<rect x="52" y="96" width="2" height="2" fill="#222034" />
<rect x="54" y="96" width="2" height="2" fill="#222034" />
<rect x="56" y="96" width="2" height="2" fill="#222034" />
<rect x="58" y="96" width="2" height="2" fill="#222034" />
<rect x="60" y="96" width="2" height="2" fill="#222034" />
<rect x="62" y="96" width="2" height="2" fill="#222034" />
<rect x="64" y="96" width="2" height="2" fill="#222034" />
<rect x="66" y="96" width="2" height="2" fill="#222034" />
<rect x="68" y="96" width="2" height="2" fill="#222034" />
<rect x="50" y="98" width="2" height="2" fill="#222034" />
<rect x="52" y="98" width="2" height="2" fill="#222034" />
<rect x="54" y="98" width="2" height="2" fill="#222034" />
<rect x="56" y="98" width="2" height="2" fill="#222034" />
<rect x="58" y="98" width="2" height="2" fill="#222034" />
<rect x="60" y="98" width="2" height="2" fill="#222034" />
<rect x="62" y="98" width="2" height="2" fill="#222034" />
<rect x="64" y="98" width="2" height="2" fill="#222034" />
<rect x="66" y="98" width="2" height="2" fill="#222034" />
<rect x="68" y="98" width="2" height="2" fill="#222034" />
<rect x="70" y="98" width="2" height="2" fill="#222034" />
<rect x="48" y="100" width="2" height="2" fill="#222034" />
<rect x="50" y="100" width="2" height="2" fill="#222034" />
<rect x="52" y="100" width="2" height="2" fill="#222034" />
<rect x="54" y="100" width="2" height="2" fill="#222034" />
<rect x="56" y="100" width="2" height="2" fill="#222034" />
<rect x="62" y="100" width="2" height="2" fill="#222034" />
<rect x="64" y="100" width="2" height="2" fill="#222034" />
<rect x="66" y="100" width="2" height="2" fill="#222034" />
<rect x="68" y="100" width="2" height="2" fill="#222034" />
<rect x="70" y="100" width="2" height="2" fill="#222034" />
<rect x="72" y="100" width="2" height="2" fill="#222034" />
<rect x="48" y="102" width="2" height="2" fill="#222034" />
<rect x="50" y="102" width="2" height="2" fill="#222034" />
<rect x="52" y="102" width="2" height="2" fill="#222034" />
<rect x="54" y="102" width="2" height="2" fill="#222034" />
<rect x="64" y="102" width="2" height="2" fill="#222034" />
<rect x="66" y="102" width="2" height="2" fill="#222034" />
<rect x="68" y="102" width="2" height="2" fill="#222034" />
<rect x="70" y="102" width="2" height="2" fill="#222034" />
<rect x="72" y="102" width="2" height="2" fill="#222034" />
<rect x="46" y="104" width="2" height="2" fill="#222034" />
<rect x="48" y="104" width="2" height="2" fill="#222034" />
<rect x="50" y="104" width="2" height="2" fill="#222034" />
<rect x="52" y="104" width="2" height="2" fill="#222034" />
<rect x="54" y="104" width="2" height="2" fill="#222034" />
<rect x="66" y="104" width="2" height="2" fill="#222034" />
<rect x="68" y="104" width="2" height="2" fill="#222034" />
<rect x="70" y="104" width="2" height="2" fill="#222034" />
<rect x="72" y="104" width="2" height="2" fill="#222034" />
<rect x="74" y="104" width="2" height="2" fill="#222034" />
<rect x="46" y="106" width="2" height="2" fill="#222034" />
<rect x="48" y="106" width="2" height="2" fill="#222034" />
<rect x="50" y="106" width="2" height="2" fill="#222034" />
<rect x="52" y="106" width="2" height="2" fill="#222034" />
<rect x="54" y="106" width="2" height="2" fill="#222034" />
<rect x="66" y="106" width="2" height="2" fill="#222034" />
<rect x="68" y="106" width="2" height="2" fill="#222034" />
<rect x="70" y="106" width="2" height="2" fill="#222034" />
<rect x="72" y="106" width="2" height="2" fill="#222034" />
<rect x="74" y="106" width="2" height="2" fill="#222034" />
<rect x="46" y="108" width="2" height="2" fill="#222034" />
<rect x="48" y="108" width="2" height="2" fill="#222034" />
<rect x="50" y="108" width="2" height="2" fill="#222034" />
<rect x="52" y="108" width="2" height="2" fill="#222034" />
<rect x="68" y="108" width="2" height="2" fill="#222034" />
<rect x="70" y="108" width="2" height="2" fill="#222034" />
<rect x="72" y="108" width="2" height="2" fill="#222034" />
<rect x="74" y="108" width="2" height="2" fill="#222034" />
<rect x="46" y="110" width="2" height="2" fill="#222034" />
<rect x="48" y="110" width="2" height="2" fill="#222034" />
<rect x="50" y="110" width="2" height="2" fill="#222034" />
<rect x="52" y="110" width="2" height="2" fill="#222034" />
<rect x="68" y="110" width="2" height="2" fill="#222034" />
<rect x="70" y="110" width="2" height="2" fill="#222034" />
<rect x="72" y="110" width="2" height="2" fill="#222034" />
<rect x="74" y="110" width="2" height="2" fill="#222034" />
<rect x="48" y="112" width="2" height="2" fill="#222034" />
<rect x="50" y="112" width="2" height="2" fill="#222034" />
<rect x="52" y="112" width="2" height="2" fill="#222034" />
<rect x="68" y="112" width="2" height="2" fill="#222034" />
<rect x="70" y="112" width="2" height="2" fill="#222034" />
<rect x="72" y="112" width="2" height="2" fill="#222034" />
<rect x="74" y="112" width="2" height="2" fill="#222034" />
</svg>