<?xml version="1.0" encoding="UTF-8" ?>
<svg version="1.1" width="62" height="90" xmlns="http://www.w3.org/2000/svg" shape-rendering="crispEdges">
<rect x="4" y="0" width="2" height="2" fill="#222034" />
<rect x="6" y="0" width="2" height="2" fill="#3B375B" />
<rect x="8" y="0" width="2" height="2" fill="#3B375B" />
<rect x="10" y="0" width="2" height="2" fill="#3B375B" />
<rect x="6" y="2" width="2" height="2" fill="#222034" />
<rect x="8" y="2" width="2" height="2" fill="#222034" />
<rect x="10" y="2" width="2" height="2" fill="#3B375B" />
<rect x="12" y="2" width="2" height="2" fill="#3B375B" />
<rect x="14" y="2" width="2" height="2" fill="#3B375B" />
<rect x="8" y="4" width="2" height="2" fill="#222034" />
<rect x="10" y="4" width="2" height="2" fill="#222034" />
<rect x="12" y="4" width="2" height="2" fill="#222034" />
<rect x="14" y="4" width="2" height="2" fill="#3B375B" />
<rect x="16" y="4" width="2" height="2" fill="#3B375B" />
<rect x="8" y="6" width="2" height="2" fill="#222034" />
<rect x="10" y="6" width="2" height="2" fill="#222034" />
<rect x="12" y="6" width="2" height="2" fill="#222034" />
<rect x="14" y="6" width="2" height="2" fill="#222034" />
<rect x="16" y="6" width="2" height="2" fill="#3B375B" />
<rect x="18" y="6" width="2" height="2" fill="#3B375B" />
<rect x="10" y="8" width="2" height="2" fill="#222034" />
<rect x="12" y="8" width="2" height="2" fill="#222034" />
<rect x="14" y="8" width="2" height="2" fill="#222034" />
<rect x="16" y="8" width="2" height="2" fill="#222034" />
<rect x="18" y="8" width="2" height="2" fill="#222034" />
<rect x="20" y="8" width="2" height="2" fill="#222034" />
<rect x="10" y="10" width="2" height="2" fill="#222034" />
<rect x="12" y="10" width="2" height="2" fill="#222034" />
<rect x="14" y="10" width="2" height="2" fill="#222034" />
<rect x="16" y="10" width="2" height="2" fill="#222034" />
<rect x="18" y="10" width="2" height="2" fill="#222034" />
<rect x="20" y="10" width="2" height="2" fill="#222034" />
<rect x="22" y="10" width="2" height="2" fill="#222034" />
<rect x="24" y="10" width="2" height="2" fill="#222034" />
<rect x="26" y="10" width="2" height="2" fill="#222034" />
<rect x="10" y="12" width="2" height="2" fill="#222034" />
<rect x="12" y="12" width="2" height="2" fill="#222034" />
<rect x="14" y="12" width="2" height="2" fill="#222034" />
<rect x="16" y="12" width="2" height="2" fill="#222034" />
<rect x="18" y="12" width="2" height="2" fill="#222034" />
<rect x="20" y="12" width="2" height="2" fill="#222034" />
<rect x="22" y="12" width="2" height="2" fill="#222034" />
<rect x="24" y="12" width="2" height="2" fill="#222034" />
<rect x="26" y="12" width="2" height="2" fill="#222034" />
<rect x="28" y="12" width="2" height="2" fill="#222034" />
<rect x="10" y="14" width="2" height="2" fill="#222034" />
<rect x="12" y="14" width="2" height="2" fill="#222034" />
<rect x="14" y="14" width="2" height="2" fill="#222034" />
<rect x="16" y="14" width="2" height="2" fill="#222034" />
<rect x="18" y="14" width="2" height="2" fill="#3B375B" />
<rect x="20" y="14" width="2" height="2" fill="#222034" />
<rect x="22" y="14" width="2" height="2" fill="#222034" />
<rect x="24" y="14" width="2" height="2" fill="#222034" />
<rect x="26" y="14" width="2" height="2" fill="#222034" />
<rect x="28" y="14" width="2" height="2" fill="#222034" />
<rect x="12" y="16" width="2" height="2" fill="#222034" />
<rect x="14" y="16" width="2" height="2" fill="#222034" />
<rect x="16" y="16" width="2" height="2" fill="#222034" />
<rect x="18" y="16" width="2" height="2" fill="#222034" />
<rect x="20" y="16" width="2" height="2" fill="#3B375B" />
<rect x="22" y="16" width="2" height="2" fill="#222034" />
<rect x="24" y="16" width="2" height="2" fill="#222034" />
<rect x="26" y="16" width="2" height="2" fill="#222034" />
<rect x="28" y="16" width="2" height="2" fill="#222034" />
<rect x="30" y="16" width="2" height="2" fill="#222034" />
<rect x="32" y="16" width="2" height="2" fill="#222034" />
<rect x="34" y="16" width="2" height="2" fill="#222034" />
<rect x="12" y="18" width="2" height="2" fill="#222034" />
<rect x="14" y="18" width="2" height="2" fill="#222034" />
<rect x="16" y="18" width="2" height="2" fill="#222034" />
<rect x="18" y="18" width="2" height="2" fill="#222034" />
<rect x="20" y="18" width="2" height="2" fill="#3B375B" />
<rect x="22" y="18" width="2" height="2" fill="#3B375B" />
<rect x="24" y="18" width="2" height="2" fill="#222034" />
<rect x="26" y="18" width="2" height="2" fill="#222034" />
<rect x="28" y="18" width="2" height="2" fill="#222034" />
<rect x="30" y="18" width="2" height="2" fill="#222034" />
<rect x="32" y="18" width="2" height="2" fill="#222034" />
<rect x="34" y="18" width="2" height="2" fill="#222034" />
<rect x="36" y="18" width="2" height="2" fill="#222034" />
<rect x="14" y="20" width="2" height="2" fill="#222034" />
<rect x="16" y="20" width="2" height="2" fill="#222034" />
<rect x="18" y="20" width="2" height="2" fill="#222034" />
<rect x="20" y="20" width="2" height="2" fill="#222034" />
<rect x="22" y="20" width="2" height="2" fill="#222034" />
<rect x="24" y="20" width="2" height="2" fill="#3B375B" />
<rect x="26" y="20" width="2" height="2" fill="#222034" />
<rect x="28" y="20" width="2" height="2" fill="#222034" />
<rect x="30" y="20" width="2" height="2" fill="#3B375B" />
<rect x="32" y="20" width="2" height="2" fill="#222034" />
<rect x="34" y="20" width="2" height="2" fill="#222034" />
<rect x="36" y="20" width="2" height="2" fill="#222034" />
<rect x="38" y="20" width="2" height="2" fill="#222034" />
<rect x="12" y="22" width="2" height="2" fill="#222034" />
<rect x="14" y="22" width="2" height="2" fill="#222034" />
<rect x="16" y="22" width="2" height="2" fill="#222034" />
<rect x="18" y="22" width="2" height="2" fill="#222034" />
<rect x="20" y="22" width="2" height="2" fill="#222034" />
<rect x="22" y="22" width="2" height="2" fill="#222034" />
<rect x="24" y="22" width="2" height="2" fill="#3B375B" />
<rect x="26" y="22" width="2" height="2" fill="#3B375B" />
<rect x="28" y="22" width="2" height="2" fill="#222034" />
<rect x="30" y="22" width="2" height="2" fill="#222034" />
<rect x="32" y="22" width="2" height="2" fill="#3B375B" />
<rect x="34" y="22" width="2" height="2" fill="#3B375B" />
<rect x="36" y="22" width="2" height="2" fill="#222034" />
<rect x="38" y="22" width="2" height="2" fill="#222034" />
<rect x="40" y="22" width="2" height="2" fill="#222034" />
<rect x="42" y="22" width="2" height="2" fill="#222034" />
<rect x="12" y="24" width="2" height="2" fill="#222034" />
<rect x="14" y="24" width="2" height="2" fill="#222034" />
<rect x="16" y="24" width="2" height="2" fill="#222034" />
<rect x="18" y="24" width="2" height="2" fill="#3B375B" />
<rect x="20" y="24" width="2" height="2" fill="#222034" />
<rect x="22" y="24" width="2" height="2" fill="#222034" />
<rect x="24" y="24" width="2" height="2" fill="#222034" />
<rect x="26" y="24" width="2" height="2" fill="#3B375B" />
<rect x="28" y="24" width="2" height="2" fill="#222034" />
<rect x="30" y="24" width="2" height="2" fill="#222034" />
<rect x="32" y="24" width="2" height="2" fill="#222034" />
<rect x="34" y="24" width="2" height="2" fill="#3B375B" />
<rect x="36" y="24" width="2" height="2" fill="#3B375B" />
<rect x="38" y="24" width="2" height="2" fill="#3B375B" />
<rect x="40" y="24" width="2" height="2" fill="#222034" />
<rect x="42" y="24" width="2" height="2" fill="#222034" />
<rect x="44" y="24" width="2" height="2" fill="#222034" />
<rect x="46" y="24" width="2" height="2" fill="#222034" />
<rect x="48" y="24" width="2" height="2" fill="#222034" />
<rect x="50" y="24" width="2" height="2" fill="#222034" />
<rect x="10" y="26" width="2" height="2" fill="#222034" />
<rect x="12" y="26" width="2" height="2" fill="#222034" />
<rect x="14" y="26" width="2" height="2" fill="#222034" />
<rect x="16" y="26" width="2" height="2" fill="#3B375B" />
<rect x="18" y="26" width="2" height="2" fill="#3B375B" />
<rect x="20" y="26" width="2" height="2" fill="#222034" />
<rect x="22" y="26" width="2" height="2" fill="#222034" />
<rect x="24" y="26" width="2" height="2" fill="#222034" />
<rect x="26" y="26" width="2" height="2" fill="#3B375B" />
<rect x="28" y="26" width="2" height="2" fill="#222034" />
<rect x="30" y="26" width="2" height="2" fill="#222034" />
<rect x="32" y="26" width="2" height="2" fill="#222034" />
<rect x="34" y="26" width="2" height="2" fill="#222034" />
<rect x="36" y="26" width="2" height="2" fill="#222034" />
<rect x="38" y="26" width="2" height="2" fill="#3B375B" />
<rect x="40" y="26" width="2" height="2" fill="#3B375B" />
<rect x="42" y="26" width="2" height="2" fill="#3B375B" />
<rect x="44" y="26" width="2" height="2" fill="#222034" />
<rect x="46" y="26" width="2" height="2" fill="#222034" />
<rect x="48" y="26" width="2" height="2" fill="#222034" />
<rect x="50" y="26" width="2" height="2" fill="#222034" />
<rect x="8" y="28" width="2" height="2" fill="#222034" />
<rect x="10" y="28" width="2" height="2" fill="#222034" />
<rect x="12" y="28" width="2" height="2" fill="#222034" />
<rect x="14" y="28" width="2" height="2" fill="#222034" />
<rect x="16" y="28" width="2" height="2" fill="#3B375B" />
<rect x="18" y="28" width="2" height="2" fill="#222034" />
<rect x="20" y="28" width="2" height="2" fill="#222034" />
<rect x="22" y="28" width="2" height="2" fill="#222034" />
<rect x="24" y="28" width="2" height="2" fill="#222034" />
<rect x="26" y="28" width="2" height="2" fill="#3B375B" />
<rect x="28" y="28" width="2" height="2" fill="#222034" />
<rect x="30" y="28" width="2" height="2" fill="#222034" />
<rect x="32" y="28" width="2" height="2" fill="#222034" />
<rect x="34" y="28" width="2" height="2" fill="#222034" />
<rect x="36" y="28" width="2" height="2" fill="#222034" />
<rect x="38" y="28" width="2" height="2" fill="#222034" />
<rect x="40" y="28" width="2" height="2" fill="#222034" />
<rect x="42" y="28" width="2" height="2" fill="#3B375B" />
<rect x="44" y="28" width="2" height="2" fill="#3B375B" />
<rect x="46" y="28" width="2" height="2" fill="#222034" />
<rect x="48" y="28" width="2" height="2" fill="#222034" />
<rect x="50" y="28" width="2" height="2" fill="#222034" />
<rect x="52" y="28" width="2" height="2" fill="#222034" />
<rect x="54" y="28" width="2" height="2" fill="#222034" />
<rect x="4" y="30" width="2" height="2" fill="#222034" />
<rect x="6" y="30" width="2" height="2" fill="#222034" />
<rect x="8" y="30" width="2" height="2" fill="#222034" />
<rect x="10" y="30" width="2" height="2" fill="#222034" />
<rect x="12" y="30" width="2" height="2" fill="#222034" />
<rect x="14" y="30" width="2" height="2" fill="#222034" />
<rect x="16" y="30" width="2" height="2" fill="#3B375B" />
<rect x="18" y="30" width="2" height="2" fill="#222034" />
<rect x="20" y="30" width="2" height="2" fill="#222034" />
<rect x="22" y="30" width="2" height="2" fill="#222034" />
<rect x="24" y="30" width="2" height="2" fill="#222034" />
<rect x="26" y="30" width="2" height="2" fill="#222034" />
<rect x="28" y="30" width="2" height="2" fill="#222034" />
<rect x="30" y="30" width="2" height="2" fill="#222034" />
<rect x="32" y="30" width="2" height="2" fill="#222034" />
<rect x="34" y="30" width="2" height="2" fill="#222034" />
<rect x="36" y="30" width="2" height="2" fill="#222034" />
<rect x="38" y="30" width="2" height="2" fill="#222034" />
<rect x="40" y="30" width="2" height="2" fill="#222034" />
<rect x="42" y="30" width="2" height="2" fill="#222034" />
<rect x="44" y="30" width="2" height="2" fill="#222034" />
<rect x="46" y="30" width="2" height="2" fill="#222034" />
<rect x="48" y="30" width="2" height="2" fill="#222034" />
<rect x="50" y="30" width="2" height="2" fill="#222034" />
<rect x="52" y="30" width="2" height="2" fill="#222034" />
<rect x="54" y="30" width="2" height="2" fill="#222034" />
<rect x="56" y="30" width="2" height="2" fill="#222034" />
<rect x="58" y="30" width="2" height="2" fill="#222034" />
<rect x="60" y="30" width="2" height="2" fill="#222034" />
<rect x="2" y="32" width="2" height="2" fill="#222034" />
<rect x="4" y="32" width="2" height="2" fill="#222034" />
<rect x="6" y="32" width="2" height="2" fill="#222034" />
<rect x="8" y="32" width="2" height="2" fill="#222034" />
<rect x="10" y="32" width="2" height="2" fill="#222034" />
<rect x="12" y="32" width="2" height="2" fill="#222034" />
<rect x="14" y="32" width="2" height="2" fill="#3B375B" />
<rect x="16" y="32" width="2" height="2" fill="#3B375B" />
<rect x="18" y="32" width="2" height="2" fill="#222034" />
<rect x="20" y="32" width="2" height="2" fill="#222034" />
<rect x="22" y="32" width="2" height="2" fill="#222034" />
<rect x="24" y="32" width="2" height="2" fill="#222034" />
<rect x="26" y="32" width="2" height="2" fill="#222034" />
<rect x="28" y="32" width="2" height="2" fill="#222034" />
<rect x="30" y="32" width="2" height="2" fill="#222034" />
<rect x="32" y="32" width="2" height="2" fill="#222034" />
<rect x="34" y="32" width="2" height="2" fill="#222034" />
<rect x="36" y="32" width="2" height="2" fill="#222034" />
<rect x="38" y="32" width="2" height="2" fill="#222034" />
<rect x="40" y="32" width="2" height="2" fill="#222034" />
<rect x="42" y="32" width="2" height="2" fill="#222034" />
<rect x="44" y="32" width="2" height="2" fill="#222034" />
<rect x="46" y="32" width="2" height="2" fill="#222034" />
<rect x="48" y="32" width="2" height="2" fill="#222034" />
<rect x="50" y="32" width="2" height="2" fill="#222034" />
<rect x="52" y="32" width="2" height="2" fill="#222034" />
<rect x="54" y="32" width="2" height="2" fill="#222034" />
<rect x="56" y="32" width="2" height="2" fill="#222034" />
<rect x="58" y="32" width="2" height="2" fill="#222034" />
<rect x="60" y="32" width="2" height="2" fill="#222034" />
<rect x="0" y="34" width="2" height="2" fill="#222034" />
<rect x="2" y="34" width="2" height="2" fill="#222034" />
<rect x="4" y="34" width="2" height="2" fill="#222034" />
<rect x="6" y="34" width="2" height="2" fill="#222034" />
<rect x="8" y="34" width="2" height="2" fill="#222034" />
<rect x="10" y="34" width="2" height="2" fill="#222034" />
<rect x="12" y="34" width="2" height="2" fill="#222034" />
<rect x="14" y="34" width="2" height="2" fill="#222034" />
<rect x="16" y="34" width="2" height="2" fill="#222034" />
<rect x="18" y="34" width="2" height="2" fill="#222034" />
<rect x="20" y="34" width="2" height="2" fill="#222034" />
<rect x="22" y="34" width="2" height="2" fill="#222034" />
<rect x="24" y="34" width="2" height="2" fill="#222034" />
<rect x="26" y="34" width="2" height="2" fill="#222034" />
<rect x="28" y="34" width="2" height="2" fill="#222034" />
<rect x="30" y="34" width="2" height="2" fill="#222034" />
<rect x="32" y="34" width="2" height="2" fill="#222034" />
<rect x="34" y="34" width="2" height="2" fill="#222034" />
<rect x="36" y="34" width="2" height="2" fill="#222034" />
<rect x="38" y="34" width="2" height="2" fill="#222034" />
<rect x="40" y="34" width="2" height="2" fill="#222034" />
<rect x="42" y="34" width="2" height="2" fill="#222034" />
<rect x="44" y="34" width="2" height="2" fill="#222034" />
<rect x="46" y="34" width="2" height="2" fill="#222034" />
<rect x="48" y="34" width="2" height="2" fill="#3B375B" />
<rect x="50" y="34" width="2" height="2" fill="#3B375B" />
<rect x="52" y="34" width="2" height="2" fill="#3B375B" />
<rect x="54" y="34" width="2" height="2" fill="#3B375B" />
<rect x="56" y="34" width="2" height="2" fill="#3B375B" />
<rect x="58" y="34" width="2" height="2" fill="#222034" />
<rect x="2" y="36" width="2" height="2" fill="#222034" />
<rect x="4" y="36" width="2" height="2" fill="#222034" />
<rect x="6" y="36" width="2" height="2" fill="#222034" />
<rect x="8" y="36" width="2" height="2" fill="#222034" />
<rect x="10" y="36" width="2" height="2" fill="#222034" />
<rect x="12" y="36" width="2" height="2" fill="#222034" />
<rect x="14" y="36" width="2" height="2" fill="#222034" />
<rect x="16" y="36" width="2" height="2" fill="#222034" />
<rect x="18" y="36" width="2" height="2" fill="#222034" />
<rect x="20" y="36" width="2" height="2" fill="#222034" />
<rect x="22" y="36" width="2" height="2" fill="#3B375B" />
<rect x="24" y="36" width="2" height="2" fill="#3B375B" />
<rect x="26" y="36" width="2" height="2" fill="#3B375B" />
<rect x="28" y="36" width="2" height="2" fill="#222034" />
<rect x="30" y="36" width="2" height="2" fill="#222034" />
<rect x="32" y="36" width="2" height="2" fill="#3B375B" />
<rect x="34" y="36" width="2" height="2" fill="#3B375B" />
<rect x="36" y="36" width="2" height="2" fill="#222034" />
<rect x="38" y="36" width="2" height="2" fill="#222034" />
<rect x="40" y="36" width="2" height="2" fill="#3B375B" />
<rect x="42" y="36" width="2" height="2" fill="#3B375B" />
<rect x="44" y="36" width="2" height="2" fill="#3B375B" />
<rect x="46" y="36" width="2" height="2" fill="#3B375B" />
<rect x="48" y="36" width="2" height="2" fill="#3B375B" />
<rect x="50" y="36" width="2" height="2" fill="#222034" />
<rect x="4" y="38" width="2" height="2" fill="#222034" />
<rect x="6" y="38" width="2" height="2" fill="#222034" />
<rect x="8" y="38" width="2" height="2" fill="#222034" />
<rect x="10" y="38" width="2" height="2" fill="#222034" />
<rect x="12" y="38" width="2" height="2" fill="#222034" />
<rect x="14" y="38" width="2" height="2" fill="#3B375B" />
<rect x="16" y="38" width="2" height="2" fill="#3B375B" />
<rect x="18" y="38" width="2" height="2" fill="#3B375B" />
<rect x="20" y="38" width="2" height="2" fill="#3B375B" />
<rect x="22" y="38" width="2" height="2" fill="#3B375B" />
<rect x="24" y="38" width="2" height="2" fill="#222034" />
<rect x="26" y="38" width="2" height="2" fill="#222034" />
<rect x="28" y="38" width="2" height="2" fill="#222034" />
<rect x="30" y="38" width="2" height="2" fill="#222034" />
<rect x="32" y="38" width="2" height="2" fill="#222034" />
<rect x="34" y="38" width="2" height="2" fill="#222034" />
<rect x="36" y="38" width="2" height="2" fill="#222034" />
<rect x="38" y="38" width="2" height="2" fill="#222034" />
<rect x="40" y="38" width="2" height="2" fill="#222034" />
<rect x="42" y="38" width="2" height="2" fill="#222034" />
<rect x="44" y="38" width="2" height="2" fill="#222034" />
<rect x="46" y="38" width="2" height="2" fill="#222034" />
<rect x="48" y="38" width="2" height="2" fill="#222034" />
<rect x="50" y="38" width="2" height="2" fill="#222034" />
<rect x="12" y="40" width="2" height="2" fill="#222034" />
<rect x="14" y="40" width="2" height="2" fill="#222034" />
<rect x="16" y="40" width="2" height="2" fill="#222034" />
<rect x="18" y="40" width="2" height="2" fill="#222034" />
<rect x="20" y="40" width="2" height="2" fill="#222034" />
<rect x="22" y="40" width="2" height="2" fill="#222034" />
<rect x="24" y="40" width="2" height="2" fill="#222034" />
<rect x="26" y="40" width="2" height="2" fill="#222034" />
<rect x="28" y="40" width="2" height="2" fill="#222034" />
<rect x="30" y="40" width="2" height="2" fill="#222034" />
<rect x="32" y="40" width="2" height="2" fill="#222034" />
<rect x="34" y="40" width="2" height="2" fill="#222034" />
<rect x="36" y="40" width="2" height="2" fill="#222034" />
<rect x="38" y="40" width="2" height="2" fill="#222034" />
<rect x="40" y="40" width="2" height="2" fill="#222034" />
<rect x="42" y="40" width="2" height="2" fill="#222034" />
<rect x="44" y="40" width="2" height="2" fill="#222034" />
<rect x="46" y="40" width="2" height="2" fill="#222034" />
<rect x="48" y="40" width="2" height="2" fill="#222034" />
<rect x="50" y="40" width="2" height="2" fill="#222034" />
<rect x="52" y="40" width="2" height="2" fill="#222034" />
<rect x="10" y="42" width="2" height="2" fill="#222034" />
<rect x="12" y="42" width="2" height="2" fill="#222034" />
<rect x="14" y="42" width="2" height="2" fill="#222034" />
<rect x="16" y="42" width="2" height="2" fill="#222034" />
<rect x="18" y="42" width="2" height="2" fill="#222034" />
<rect x="20" y="42" width="2" height="2" fill="#222034" />
<rect x="22" y="42" width="2" height="2" fill="#222034" />
<rect x="24" y="42" width="2" height="2" fill="#3B375B" />
<rect x="26" y="42" width="2" height="2" fill="#3B375B" />
<rect x="28" y="42" width="2" height="2" fill="#222034" />
<rect x="30" y="42" width="2" height="2" fill="#222034" />
<rect x="32" y="42" width="2" height="2" fill="#222034" />
<rect x="34" y="42" width="2" height="2" fill="#222034" />
<rect x="36" y="42" width="2" height="2" fill="#3B375B" />
<rect x="38" y="42" width="2" height="2" fill="#3B375B" />
<rect x="40" y="42" width="2" height="2" fill="#222034" />
<rect x="42" y="42" width="2" height="2" fill="#222034" />
<rect x="44" y="42" width="2" height="2" fill="#222034" />
<rect x="46" y="42" width="2" height="2" fill="#222034" />
<rect x="48" y="42" width="2" height="2" fill="#222034" />
<rect x="50" y="42" width="2" height="2" fill="#222034" />
<rect x="52" y="42" width="2" height="2" fill="#222034" />
<rect x="10" y="44" width="2" height="2" fill="#222034" />
<rect x="12" y="44" width="2" height="2" fill="#222034" />
<rect x="14" y="44" width="2" height="2" fill="#222034" />
<rect x="16" y="44" width="2" height="2" fill="#222034" />
<rect x="18" y="44" width="2" height="2" fill="#222034" />
<rect x="20" y="44" width="2" height="2" fill="#222034" />
<rect x="22" y="44" width="2" height="2" fill="#222034" />
<rect x="24" y="44" width="2" height="2" fill="#3B375B" />
<rect x="26" y="44" width="2" height="2" fill="#3B375B" />
<rect x="28" y="44" width="2" height="2" fill="#222034" />
<rect x="30" y="44" width="2" height="2" fill="#222034" />
<rect x="32" y="44" width="2" height="2" fill="#222034" />
<rect x="34" y="44" width="2" height="2" fill="#222034" />
<rect x="36" y="44" width="2" height="2" fill="#3B375B" />
<rect x="38" y="44" width="2" height="2" fill="#3B375B" />
<rect x="40" y="44" width="2" height="2" fill="#222034" />
<rect x="42" y="44" width="2" height="2" fill="#222034" />
<rect x="44" y="44" width="2" height="2" fill="#222034" />
<rect x="46" y="44" width="2" height="2" fill="#222034" />
<rect x="48" y="44" width="2" height="2" fill="#222034" />
<rect x="50" y="44" width="2" height="2" fill="#222034" />
<rect x="52" y="44" width="2" height="2" fill="#222034" />
<rect x="10" y="46" width="2" height="2" fill="#222034" />
<rect x="12" y="46" width="2" height="2" fill="#222034" />
<rect x="14" y="46" width="2" height="2" fill="#222034" />
<rect x="16" y="46" width="2" height="2" fill="#222034" />
<rect x="18" y="46" width="2" height="2" fill="#222034" />
<rect x="20" y="46" width="2" height="2" fill="#222034" />
<rect x="22" y="46" width="2" height="2" fill="#222034" />
<rect x="24" y="46" width="2" height="2" fill="#222034" />
<rect x="26" y="46" width="2" height="2" fill="#222034" />
<rect x="28" y="46" width="2" height="2" fill="#222034" />
<rect x="30" y="46" width="2" height="2" fill="#222034" />
<rect x="32" y="46" width="2" height="2" fill="#222034" />
<rect x="34" y="46" width="2" height="2" fill="#222034" />
<rect x="36" y="46" width="2" height="2" fill="#222034" />
<rect x="38" y="46" width="2" height="2" fill="#222034" />
<rect x="40" y="46" width="2" height="2" fill="#222034" />
<rect x="42" y="46" width="2" height="2" fill="#222034" />
<rect x="44" y="46" width="2" height="2" fill="#222034" />
<rect x="46" y="46" width="2" height="2" fill="#222034" />
<rect x="48" y="46" width="2" height="2" fill="#222034" />
<rect x="50" y="46" width="2" height="2" fill="#222034" />
<rect x="52" y="46" width="2" height="2" fill="#222034" />
<rect x="10" y="48" width="2" height="2" fill="#222034" />
<rect x="12" y="48" width="2" height="2" fill="#222034" />
<rect x="14" y="48" width="2" height="2" fill="#222034" />
<rect x="16" y="48" width="2" height="2" fill="#222034" />
<rect x="18" y="48" width="2" height="2" fill="#222034" />
<rect x="20" y="48" width="2" height="2" fill="#222034" />
<rect x="22" y="48" width="2" height="2" fill="#222034" />
<rect x="24" y="48" width="2" height="2" fill="#222034" />
<rect x="26" y="48" width="2" height="2" fill="#222034" />
<rect x="28" y="48" width="2" height="2" fill="#222034" />
<rect x="30" y="48" width="2" height="2" fill="#222034" />
<rect x="32" y="48" width="2" height="2" fill="#222034" />
<rect x="34" y="48" width="2" height="2" fill="#222034" />
<rect x="36" y="48" width="2" height="2" fill="#222034" />
<rect x="38" y="48" width="2" height="2" fill="#222034" />
<rect x="40" y="48" width="2" height="2" fill="#222034" />
<rect x="42" y="48" width="2" height="2" fill="#222034" />
<rect x="44" y="48" width="2" height="2" fill="#222034" />
<rect x="46" y="48" width="2" height="2" fill="#222034" />
<rect x="48" y="48" width="2" height="2" fill="#222034" />
<rect x="50" y="48" width="2" height="2" fill="#222034" />
<rect x="52" y="48" width="2" height="2" fill="#222034" />
<rect x="10" y="50" width="2" height="2" fill="#222034" />
<rect x="12" y="50" width="2" height="2" fill="#222034" />
<rect x="14" y="50" width="2" height="2" fill="#222034" />
<rect x="16" y="50" width="2" height="2" fill="#222034" />
<rect x="18" y="50" width="2" height="2" fill="#222034" />
<rect x="20" y="50" width="2" height="2" fill="#3B375B" />
<rect x="22" y="50" width="2" height="2" fill="#3B375B" />
<rect x="24" y="50" width="2" height="2" fill="#222034" />
<rect x="26" y="50" width="2" height="2" fill="#3B375B" />
<rect x="28" y="50" width="2" height="2" fill="#222034" />
<rect x="30" y="50" width="2" height="2" fill="#222034" />
<rect x="32" y="50" width="2" height="2" fill="#222034" />
<rect x="34" y="50" width="2" height="2" fill="#222034" />
<rect x="36" y="50" width="2" height="2" fill="#222034" />
<rect x="38" y="50" width="2" height="2" fill="#3B375B" />
<rect x="40" y="50" width="2" height="2" fill="#222034" />
<rect x="42" y="50" width="2" height="2" fill="#3B375B" />
<rect x="44" y="50" width="2" height="2" fill="#3B375B" />
<rect x="46" y="50" width="2" height="2" fill="#222034" />
<rect x="48" y="50" width="2" height="2" fill="#222034" />
<rect x="50" y="50" width="2" height="2" fill="#222034" />
<rect x="10" y="52" width="2" height="2" fill="#222034" />
<rect x="12" y="52" width="2" height="2" fill="#222034" />
<rect x="14" y="52" width="2" height="2" fill="#222034" />
<rect x="16" y="52" width="2" height="2" fill="#222034" />
<rect x="18" y="52" width="2" height="2" fill="#222034" />
<rect x="20" y="52" width="2" height="2" fill="#222034" />
<rect x="22" y="52" width="2" height="2" fill="#3B375B" />
<rect x="24" y="52" width="2" height="2" fill="#222034" />
<rect x="26" y="52" width="2" height="2" fill="#3B375B" />
<rect x="28" y="52" width="2" height="2" fill="#222034" />
<rect x="30" y="52" width="2" height="2" fill="#3B375B" />
<rect x="32" y="52" width="2" height="2" fill="#222034" />
<rect x="34" y="52" width="2" height="2" fill="#3B375B" />
<rect x="36" y="52" width="2" height="2" fill="#222034" />
<rect x="38" y="52" width="2" height="2" fill="#3B375B" />
<rect x="40" y="52" width="2" height="2" fill="#222034" />
<rect x="42" y="52" width="2" height="2" fill="#3B375B" />
<rect x="44" y="52" width="2" height="2" fill="#222034" />
<rect x="46" y="52" width="2" height="2" fill="#222034" />
<rect x="48" y="52" width="2" height="2" fill="#222034" />
<rect x="50" y="52" width="2" height="2" fill="#222034" />
<rect x="12" y="54" width="2" height="2" fill="#222034" />
<rect x="14" y="54" width="2" height="2" fill="#222034" />
<rect x="16" y="54" width="2" height="2" fill="#222034" />
<rect x="18" y="54" width="2" height="2" fill="#222034" />
<rect x="20" y="54" width="2" height="2" fill="#222034" />
<rect x="22" y="54" width="2" height="2" fill="#222034" />
<rect x="24" y="54" width="2" height="2" fill="#222034" />
<rect x="26" y="54" width="2" height="2" fill="#3B375B" />
<rect x="28" y="54" width="2" height="2" fill="#222034" />
<rect x="30" y="54" width="2" height="2" fill="#3B375B" />
<rect x="32" y="54" width="2" height="2" fill="#222034" />
<rect x="34" y="54" width="2" height="2" fill="#3B375B" />
<rect x="36" y="54" width="2" height="2" fill="#222034" />
<rect x="38" y="54" width="2" height="2" fill="#3B375B" />
<rect x="40" y="54" width="2" height="2" fill="#222034" />
<rect x="42" y="54" width="2" height="2" fill="#222034" />
<rect x="44" y="54" width="2" height="2" fill="#222034" />
<rect x="46" y="54" width="2" height="2" fill="#222034" />
<rect x="16" y="56" width="2" height="2" fill="#222034" />
<rect x="18" y="56" width="2" height="2" fill="#222034" />
<rect x="20" y="56" width="2" height="2" fill="#222034" />
<rect x="22" y="56" width="2" height="2" fill="#222034" />
<rect x="24" y="56" width="2" height="2" fill="#222034" />
<rect x="26" y="56" width="2" height="2" fill="#222034" />
<rect x="28" y="56" width="2" height="2" fill="#222034" />
<rect x="30" y="56" width="2" height="2" fill="#222034" />
<rect x="32" y="56" width="2" height="2" fill="#222034" />
<rect x="34" y="56" width="2" height="2" fill="#222034" />
<rect x="36" y="56" width="2" height="2" fill="#222034" />
<rect x="38" y="56" width="2" height="2" fill="#222034" />
<rect x="40" y="56" width="2" height="2" fill="#222034" />
<rect x="42" y="56" width="2" height="2" fill="#222034" />
<rect x="44" y="56" width="2" height="2" fill="#222034" />
<rect x="46" y="56" width="2" height="2" fill="#222034" />
<rect x="20" y="58" width="2" height="2" fill="#222034" />
<rect x="22" y="58" width="2" height="2" fill="#222034" />
<rect x="24" y="58" width="2" height="2" fill="#222034" />
<rect x="26" y="58" width="2" height="2" fill="#222034" />
<rect x="28" y="58" width="2" height="2" fill="#222034" />
<rect x="30" y="58" width="2" height="2" fill="#222034" />
<rect x="32" y="58" width="2" height="2" fill="#222034" />
<rect x="34" y="58" width="2" height="2" fill="#222034" />
<rect x="36" y="58" width="2" height="2" fill="#222034" />
<rect x="38" y="58" width="2" height="2" fill="#222034" />
<rect x="40" y="58" width="2" height="2" fill="#222034" />
<rect x="42" y="58" width="2" height="2" fill="#222034" />
<rect x="44" y="58" width="2" height="2" fill="#222034" />
<rect x="24" y="60" width="2" height="2" fill="#222034" />
<rect x="26" y="60" width="2" height="2" fill="#222034" />
<rect x="28" y="60" width="2" height="2" fill="#222034" />
<rect x="30" y="60" width="2" height="2" fill="#222034" />
<rect x="32" y="60" width="2" height="2" fill="#222034" />
<rect x="34" y="60" width="2" height="2" fill="#222034" />
<rect x="36" y="60" width="2" height="2" fill="#222034" />
<rect x="28" y="62" width="2" height="2" fill="#222034" />
<rect x="30" y="62" width="2" height="2" fill="#222034" />
<rect x="32" y="62" width="2" height="2" fill="#222034" />
<rect x="28" y="64" width="2" height="2" fill="#222034" />
<rect x="30" y="64" width="2" height="2" fill="#222034" />
<rect x="32" y="64" width="2" height="2" fill="#222034" />
<rect x="34" y="64" width="2" height="2" fill="#222034" />
<rect x="28" y="66" width="2" height="2" fill="#222034" />
<rect x="30" y="66" width="2" height="2" fill="#222034" />
<rect x="32" y="66" width="2" height="2" fill="#222034" />
<rect x="34" y="66" width="2" height="2" fill="#222034" />
<rect x="26" y="68" width="2" height="2" fill="#222034" />
<rect x="28" y="68" width="2" height="2" fill="#222034" />
<rect x="30" y="68" width="2" height="2" fill="#222034" />
<rect x="32" y="68" width="2" height="2" fill="#222034" />
<rect x="34" y="68" width="2" height="2" fill="#222034" />
<rect x="36" y="68" width="2" height="2" fill="#222034" />
<rect x="24" y="70" width="2" height="2" fill="#222034" />
<rect x="26" y="70" width="2" height="2" fill="#222034" />
<rect x="28" y="70" width="2" height="2" fill="#222034" />
<rect x="30" y="70" width="2" height="2" fill="#222034" />
<rect x="32" y="70" width="2" height="2" fill="#222034" />
<rect x="34" y="70" width="2" height="2" fill="#222034" />
<rect x="36" y="70" width="2" height="2" fill="#222034" />
<rect x="38" y="70" width="2" height="2" fill="#222034" />
<rect x="40" y="70" width="2" height="2" fill="#222034" />
<rect x="22" y="72" width="2" height="2" fill="#222034" />
<rect x="24" y="72" width="2" height="2" fill="#222034" />
<rect x="26" y="72" width="2" height="2" fill="#222034" />
<rect x="28" y="72" width="2" height="2" fill="#222034" />
<rect x="30" y="72" width="2" height="2" fill="#222034" />
<rect x="32" y="72" width="2" height="2" fill="#222034" />
<rect x="34" y="72" width="2" height="2" fill="#222034" />
<rect x="36" y="72" width="2" height="2" fill="#222034" />
<rect x="38" y="72" width="2" height="2" fill="#222034" />
<rect x="40" y="72" width="2" height="2" fill="#222034" />
<rect x="42" y="72" width="2" height="2" fill="#222034" />
<rect x="20" y="74" width="2" height="2" fill="#222034" />
<rect x="22" y="74" width="2" height="2" fill="#222034" />
<rect x="24" y="74" width="2" height="2" fill="#222034" />
<rect x="26" y="74" width="2" height="2" fill="#222034" />
<rect x="28" y="74" width="2" height="2" fill="#222034" />
<rect x="30" y="74" width="2" height="2" fill="#222034" />
<rect x="32" y="74" width="2" height="2" fill="#222034" />
<rect x="34" y="74" width="2" height="2" fill="#222034" />
<rect x="36" y="74" width="2" height="2" fill="#222034" />
<rect x="38" y="74" width="2" height="2" fill="#222034" />
<rect x="40" y="74" width="2" height="2" fill="#222034" />
<rect x="42" y="74" width="2" height="2" fill="#222034" />
<rect x="44" y="74" width="2" height="2" fill="#222034" />
<rect x="18" y="76" width="2" height="2" fill="#222034" />
<rect x="20" y="76" width="2" height="2" fill="#222034" />
<rect x="22" y="76" width="2" height="2" fill="#222034" />
<rect x="24" y="76" width="2" height="2" fill="#222034" />
<rect x="26" y="76" width="2" height="2" fill="#222034" />
<rect x="36" y="76" width="2" height="2" fill="#222034" />
<rect x="38" y="76" width="2" height="2" fill="#222034" />
<rect x="40" y="76" width="2" height="2" fill="#222034" />
<rect x="42" y="76" width="2" height="2" fill="#222034" />
<rect x="44" y="76" width="2" height="2" fill="#222034" />
<rect x="18" y="78" width="2" height="2" fill="#222034" />
<rect x="20" y="78" width="2" height="2" fill="#222034" />
<rect x="22" y="78" width="2" height="2" fill="#222034" />
<rect x="24" y="78" width="2" height="2" fill="#222034" />
<rect x="38" y="78" width="2" height="2" fill="#222034" />
<rect x="40" y="78" width="2" height="2" fill="#222034" />
<rect x="42" y="78" width="2" height="2" fill="#222034" />
<rect x="44" y="78" width="2" height="2" fill="#222034" />
<rect x="46" y="78" width="2" height="2" fill="#222034" />
<rect x="16" y="80" width="2" height="2" fill="#222034" />
<rect x="18" y="80" width="2" height="2" fill="#222034" />
<rect x="20" y="80" width="2" height="2" fill="#222034" />
<rect x="22" y="80" width="2" height="2" fill="#222034" />
<rect x="24" y="80" width="2" height="2" fill="#222034" />
<rect x="38" y="80" width="2" height="2" fill="#222034" />
<rect x="40" y="80" width="2" height="2" fill="#222034" />
<rect x="42" y="80" width="2" height="2" fill="#222034" />
<rect x="44" y="80" width="2" height="2" fill="#222034" />
<rect x="46" y="80" width="2" height="2" fill="#222034" />
<rect x="16" y="82" width="2" height="2" fill="#222034" />
<rect x="18" y="82" width="2" height="2" fill="#222034" />
<rect x="20" y="82" width="2" height="2" fill="#222034" />
<rect x="22" y="82" width="2" height="2" fill="#222034" />
<rect x="24" y="82" width="2" height="2" fill="#222034" />
<rect x="40" y="82" width="2" height="2" fill="#222034" />
<rect x="42" y="82" width="2" height="2" fill="#222034" />
<rect x="44" y="82" width="2" height="2" fill="#222034" />
<rect x="46" y="82" width="2" height="2" fill="#222034" />
<rect x="16" y="84" width="2" height="2" fill="#222034" />
<rect x="18" y="84" width="2" height="2" fill="#222034" />
<rect x="20" y="84" width="2" height="2" fill="#222034" />
<rect x="22" y="84" width="2" height="2" fill="#222034" />
<rect x="40" y="84" width="2" height="2" fill="#222034" />
<rect x="42" y="84" width="2" height="2" fill="#222034" />
<rect x="44" y="84" width="2" height="2" fill="#222034" />
<rect x="46" y="84" width="2" height="2" fill="#222034" />
<rect x="16" y="86" width="2" height="2" fill="#222034" />
<rect x="18" y="86" width="2" height="2" fill="#222034" />
<rect x="20" y="86" width="2" height="2" fill="#222034" />
<rect x="22" y="86" width="2" height="2" fill="#222034" />
<rect x="40" y="86" width="2" height="2" fill="#222034" />
<rect x="42" y="86" width="2" height="2" fill="#222034" />
<rect x="44" y="86" width="2" height="2" fill="#222034" />
<rect x="46" y="86" width="2" height="2" fill="#222034" />
<rect x="18" y="88" width="2" height="2" fill="#222034" />
<rect x="20" y="88" width="2" height="2" fill="#222034" />
<rect x="22" y="88" width="2" height="2" fill="#222034" />
</svg>